<svg width="119" height="103" viewBox="0 0 119 103" fill="none" xmlns="http://www.w3.org/2000/svg">
<path d="M10.7549 16.2256L12.3002 7.15776H14.772L13.2256 16.2256H10.7549Z" fill="#1B54A2"/>
<path d="M22.1898 7.38065C21.7002 7.19694 20.9328 6.99986 19.9746 6.99986C17.5321 6.99986 15.8119 8.22968 15.7974 9.9923C15.7836 11.2954 17.0253 12.0223 17.9629 12.4561C18.925 12.9003 19.2485 13.1837 19.2439 13.5809C19.2378 14.1886 18.4755 14.4662 17.7651 14.4662C16.7759 14.4662 16.2504 14.3288 15.4388 13.9904L15.1202 13.846L14.7734 15.876C15.3505 16.1292 16.418 16.3484 17.5268 16.3599C20.1247 16.3599 21.8113 15.1442 21.8304 13.2616C21.8396 12.2304 21.1811 11.4452 19.7554 10.7982C18.8914 10.3788 18.3624 10.0989 18.3678 9.67377C18.3678 9.29718 18.8158 8.89386 19.7832 8.89386C20.5914 8.88164 21.1769 9.05771 21.6329 9.24142L21.8548 9.34607L22.1898 7.38065Z" fill="#1B54A2"/>
<path d="M25.4803 13.0111C25.685 12.4886 26.4653 10.4762 26.4653 10.4762C26.4508 10.5003 26.6681 9.95147 26.793 9.61079L26.9599 10.3926C26.9599 10.3926 27.4331 12.5574 27.532 13.0111H25.4803ZM28.5281 7.16642H26.6181C26.0268 7.16642 25.5838 7.32798 25.3241 7.91845L21.6533 16.2285H24.2485C24.2485 16.2285 24.6733 15.1114 24.7691 14.8658C25.0525 14.8658 27.574 14.87 27.9346 14.87C28.0083 15.1874 28.2351 16.2285 28.2351 16.2285H30.5287L28.5281 7.16642Z" fill="#1B54A2"/>
<path d="M8.68203 7.16446L6.26211 13.3479L6.00431 12.0914C5.55401 10.6427 4.15041 9.07336 2.58105 8.28734L4.79397 16.2178L7.40905 16.2147L11.3002 7.16446H8.68203Z" fill="#1B54A2"/>
<path d="M4.01716 7.15866H0.0317L0 7.34734C3.1009 8.09783 5.15264 9.91162 6.00435 12.0913L5.13775 7.92405C4.98803 7.35001 4.55415 7.17852 4.01716 7.15866Z" fill="#F89C0E"/>
<path d="M54.6407 19.7407C54.5716 19.6717 54.4903 19.6181 54.3956 19.5797C54.3009 19.5416 54.1979 19.5226 54.0855 19.5226C54.0258 19.5226 53.9639 19.5275 53.9002 19.5381C53.836 19.5478 53.7732 19.5659 53.7113 19.592C53.6502 19.6181 53.5914 19.654 53.5361 19.6995C53.4804 19.7455 53.4321 19.803 53.3914 19.8729C53.3251 19.7637 53.2357 19.6779 53.1225 19.6155C53.0093 19.5536 52.8805 19.5226 52.735 19.5226C52.6859 19.5226 52.6355 19.527 52.5833 19.5359C52.5306 19.5447 52.4789 19.5602 52.4276 19.5819C52.3758 19.6035 52.3267 19.6336 52.2798 19.6708C52.2329 19.7084 52.19 19.7561 52.152 19.8137V19.5739H51.7393V21.5366H52.156V20.4489C52.156 20.3653 52.1692 20.2914 52.1953 20.2264C52.2219 20.1613 52.2573 20.1074 52.3015 20.0631C52.3457 20.0198 52.3979 19.9866 52.4572 19.9641C52.5169 19.9415 52.5802 19.93 52.6479 19.93C52.7876 19.93 52.8965 19.9747 52.9739 20.0631C53.0513 20.1521 53.0898 20.279 53.0898 20.4445V21.5366H53.5065V20.4489C53.5065 20.3653 53.5193 20.2914 53.5458 20.2264C53.5724 20.1613 53.6078 20.1074 53.652 20.0631C53.6962 20.0198 53.748 19.9866 53.8077 19.9641C53.867 19.9415 53.9307 19.93 53.9979 19.93C54.1381 19.93 54.247 19.9747 54.3244 20.0631C54.4013 20.1521 54.4403 20.279 54.4403 20.4445V21.5366H54.857V20.3029C54.857 20.1883 54.8379 20.083 54.8003 19.9875C54.7623 19.892 54.7092 19.8097 54.6407 19.7407Z" fill="#231F20"/>
<path d="M56.8201 20.8049C56.7914 20.8815 56.7511 20.9478 56.6994 21.0035C56.6472 21.0597 56.5852 21.104 56.5127 21.1358C56.4406 21.1681 56.3596 21.184 56.2707 21.184C56.1778 21.184 56.0951 21.1672 56.0221 21.134C55.9487 21.1004 55.8872 21.0553 55.8363 20.9987C55.7859 20.9421 55.747 20.8753 55.72 20.7987C55.6926 20.7222 55.6789 20.6408 55.6789 20.555C55.6789 20.4687 55.6926 20.3878 55.72 20.3113C55.747 20.2347 55.7859 20.1684 55.8363 20.1113C55.8872 20.0547 55.9487 20.0096 56.0221 19.976C56.0951 19.9428 56.1778 19.926 56.2707 19.926C56.3596 19.926 56.4406 19.9419 56.5127 19.9742C56.5852 20.006 56.6472 20.0503 56.6994 20.106C56.7511 20.1622 56.7914 20.2285 56.8201 20.3051C56.8489 20.3816 56.863 20.4648 56.863 20.555C56.863 20.6452 56.8489 20.7284 56.8201 20.8049ZM56.8365 19.811C56.7679 19.7238 56.6834 19.6535 56.5822 19.6013C56.4813 19.5486 56.3605 19.5225 56.2199 19.5225C56.0818 19.5225 55.9536 19.5478 55.8346 19.5991C55.7156 19.6504 55.6121 19.7216 55.5232 19.8132C55.4342 19.9047 55.3644 20.0136 55.3139 20.1401C55.2635 20.2666 55.2383 20.4046 55.2383 20.555C55.2383 20.7054 55.2635 20.8434 55.3139 20.9699C55.3644 21.0964 55.4342 21.2053 55.5232 21.2968C55.6121 21.3884 55.7156 21.4596 55.8346 21.5109C55.9536 21.5618 56.0818 21.5879 56.2199 21.5879C56.3605 21.5879 56.4813 21.5618 56.5822 21.51C56.6834 21.4578 56.7679 21.3884 56.8365 21.3008V21.5366H57.2647V19.5734H56.8365V19.811Z" fill="#231F20"/>
<path d="M59.233 20.5522C59.1132 20.4584 58.9455 20.396 58.731 20.3646L58.5284 20.3336C58.4833 20.327 58.4408 20.319 58.401 20.3102C58.3616 20.3013 58.3276 20.2894 58.2988 20.2744C58.27 20.2593 58.247 20.2403 58.2302 20.2173C58.213 20.1939 58.2046 20.1651 58.2046 20.131C58.2046 20.0616 58.2369 20.005 58.3019 19.9621C58.3669 19.9187 58.458 19.8975 58.5753 19.8975C58.6368 19.8975 58.6974 19.9028 58.7566 19.9138C58.8164 19.9249 58.8725 19.9382 58.9256 19.9545C58.9791 19.9713 59.0274 19.9895 59.0711 20.0089C59.1149 20.0289 59.1517 20.0474 59.1817 20.0656L59.3662 19.7316C59.2636 19.6661 59.1441 19.6148 59.0074 19.5785C58.8712 19.5427 58.7257 19.5246 58.5713 19.5246C58.4457 19.5246 58.3329 19.5392 58.2333 19.5684C58.1334 19.598 58.0484 19.6396 57.9781 19.6936C57.9078 19.7475 57.8538 19.8134 57.8162 19.8913C57.7786 19.9691 57.7596 20.0563 57.7596 20.1536C57.7596 20.312 57.8162 20.4402 57.929 20.5376C58.0418 20.6353 58.2072 20.6995 58.4258 20.7291L58.6306 20.7561C58.7482 20.7725 58.834 20.7985 58.8889 20.8348C58.9433 20.8711 58.9707 20.9171 58.9707 20.9733C58.9707 21.0472 58.9331 21.1051 58.8579 21.1485C58.7827 21.1914 58.6717 21.213 58.524 21.213C58.4434 21.213 58.3713 21.2073 58.3081 21.1967C58.2444 21.1856 58.1864 21.1706 58.1338 21.1524C58.0812 21.1339 58.0343 21.1131 57.9922 21.0887C57.9507 21.0648 57.9122 21.0396 57.8768 21.0122L57.6777 21.3338C57.749 21.3869 57.8233 21.4302 57.9011 21.463C57.979 21.4957 58.0555 21.5214 58.1307 21.5395C58.2059 21.5581 58.2767 21.5705 58.3439 21.5766C58.4107 21.5828 58.4695 21.5859 58.52 21.5859C58.6606 21.5859 58.7867 21.57 58.8982 21.5386C59.0092 21.5072 59.103 21.4634 59.1786 21.4063C59.2547 21.3497 59.3127 21.282 59.3529 21.2037C59.3932 21.125 59.4135 21.0387 59.4135 20.9445C59.4135 20.7764 59.3534 20.6455 59.233 20.5522Z" fill="#231F20"/>
<path d="M62.0452 20.3873C62.0563 20.3161 62.0753 20.2511 62.1027 20.1918C62.1297 20.1321 62.1651 20.0812 62.208 20.0379C62.2514 19.995 62.3027 19.9618 62.362 19.9384C62.4212 19.9154 62.4893 19.9039 62.5659 19.9039C62.7021 19.9039 62.8136 19.9459 62.8999 20.0308C62.9857 20.1153 63.0405 20.2343 63.0635 20.3873H62.0452ZM63.2431 19.8083C63.1617 19.7176 63.064 19.6473 62.9498 19.5973C62.8362 19.5478 62.7105 19.5225 62.5738 19.5225C62.4292 19.5225 62.2969 19.5478 62.1775 19.5973C62.0581 19.6473 61.955 19.7176 61.8692 19.8083C61.7829 19.8994 61.7161 20.0082 61.6683 20.1352C61.6206 20.2622 61.5967 20.4024 61.5967 20.5554C61.5967 20.7111 61.6215 20.8523 61.6701 20.9797C61.7197 21.1066 61.7882 21.2154 61.8771 21.3052C61.966 21.3955 62.0722 21.4654 62.1947 21.514C62.3177 21.5636 62.4531 21.5879 62.6004 21.5879C62.7495 21.5879 62.8914 21.5675 63.0259 21.5264C63.1604 21.4857 63.2878 21.414 63.4081 21.3114L63.1949 21.0062C63.1131 21.0717 63.0224 21.1225 62.9233 21.1588C62.8242 21.1951 62.7256 21.2132 62.6269 21.2132C62.5575 21.2132 62.4907 21.2035 62.4265 21.1845C62.362 21.1654 62.304 21.1354 62.2522 21.0956C62.2005 21.0549 62.1558 21.0035 62.1191 20.9403C62.0819 20.8775 62.0567 20.8018 62.0435 20.7129H63.4939C63.4966 20.6886 63.4988 20.6625 63.5001 20.6355C63.5015 20.6081 63.5019 20.5807 63.5019 20.5532C63.5019 20.4002 63.4793 20.2604 63.4333 20.1343C63.3878 20.0078 63.3241 19.8994 63.2431 19.8083Z" fill="#231F20"/>
<path d="M68.9158 20.8049C68.8871 20.8815 68.8468 20.9478 68.7951 21.0035C68.7429 21.0597 68.6809 21.104 68.6084 21.1358C68.5363 21.1681 68.4553 21.184 68.3664 21.184C68.2735 21.184 68.1908 21.1672 68.1178 21.134C68.0444 21.1004 67.9829 21.0553 67.932 20.9987C67.8816 20.9421 67.8427 20.8753 67.8157 20.7987C67.7883 20.7222 67.7746 20.6408 67.7746 20.555C67.7746 20.4687 67.7883 20.3878 67.8157 20.3113C67.8427 20.2347 67.8816 20.1684 67.932 20.1113C67.9829 20.0547 68.0444 20.0096 68.1178 19.976C68.1908 19.9428 68.2735 19.926 68.3664 19.926C68.4553 19.926 68.5363 19.9419 68.6084 19.9742C68.6809 20.006 68.7429 20.0503 68.7951 20.106C68.8468 20.1622 68.8871 20.2285 68.9158 20.3051C68.9446 20.3816 68.9587 20.4648 68.9587 20.555C68.9587 20.6452 68.9446 20.7284 68.9158 20.8049ZM68.9322 19.811C68.8636 19.7238 68.7792 19.6535 68.6779 19.6013C68.577 19.5486 68.4558 19.5225 68.3156 19.5225C68.1776 19.5225 68.0493 19.5478 67.9303 19.5991C67.8113 19.6504 67.7078 19.7216 67.6189 19.8132C67.5299 19.9047 67.4601 20.0136 67.4096 20.1401C67.3592 20.2666 67.334 20.4046 67.334 20.555C67.334 20.7054 67.3592 20.8434 67.4096 20.9699C67.4601 21.0964 67.5299 21.2053 67.6189 21.2968C67.7078 21.3884 67.8113 21.4596 67.9303 21.5109C68.0493 21.5618 68.1776 21.5879 68.3156 21.5879C68.4558 21.5879 68.577 21.5618 68.6779 21.51C68.7792 21.4578 68.8636 21.3884 68.9322 21.3008V21.5366H69.3604V19.5734H68.9322V19.811Z" fill="#231F20"/>
<path d="M61.0692 21.1455C61.0002 21.1716 60.9321 21.1845 60.8653 21.1845C60.8215 21.1845 60.7808 21.1778 60.7432 21.1641C60.7056 21.1504 60.6729 21.1287 60.645 21.0995C60.6171 21.0703 60.595 21.0323 60.5786 20.9858C60.5623 20.9394 60.5539 20.8832 60.5539 20.8178V19.9631H61.2417V19.5739H60.5539V18.9798H60.1235V19.5739H59.7324V19.9631H60.1235V20.8257C60.1235 21.0867 60.1854 21.2791 60.3088 21.403C60.4327 21.5264 60.6056 21.5879 60.8286 21.5879C60.9529 21.5879 61.0643 21.5689 61.1634 21.5308C61.2289 21.5052 61.2895 21.4769 61.3461 21.4446L61.2001 21.0863C61.1586 21.1084 61.1152 21.1283 61.0692 21.1455Z" fill="#231F20"/>
<path d="M64.9361 19.5226C64.8162 19.5226 64.7074 19.5443 64.6105 19.5881C64.5132 19.6318 64.4318 19.7371 64.3664 19.8313V19.5739H63.9775V21.5366H64.3708V20.4568C64.3708 20.3737 64.3823 20.2989 64.4053 20.2334C64.4287 20.168 64.4606 20.1127 64.5017 20.0676C64.5429 20.0224 64.592 19.9884 64.6495 19.9649C64.7065 19.9419 64.7694 19.93 64.8379 19.93C64.8897 19.93 64.9454 19.9366 65.006 19.9486C65.0365 19.9552 65.0653 19.9627 65.0918 19.972L65.2183 19.562C65.1843 19.5513 65.1493 19.5416 65.1135 19.5359C65.0609 19.527 65.0016 19.5226 64.9361 19.5226Z" fill="#231F20"/>
<path d="M70.8892 19.5226C70.7689 19.5226 70.6601 19.5443 70.5632 19.5881C70.4664 19.6318 70.385 19.7371 70.3195 19.8313V19.5739H69.9307V21.5366H70.3235V20.4568C70.3235 20.3737 70.3354 20.2989 70.3584 20.2334C70.3819 20.168 70.4137 20.1127 70.4549 20.0676C70.4955 20.0224 70.5451 19.9884 70.6026 19.9649C70.6597 19.9419 70.7225 19.93 70.7906 19.93C70.8428 19.93 70.8985 19.9366 70.9587 19.9486C70.9897 19.9552 71.0184 19.9627 71.045 19.972L71.1715 19.562C71.1374 19.5513 71.1025 19.5416 71.0662 19.5359C71.014 19.527 70.9547 19.5226 70.8892 19.5226Z" fill="#231F20"/>
<path d="M72.8729 20.8049C72.8446 20.8815 72.8039 20.9478 72.7521 21.0035C72.6999 21.0597 72.638 21.104 72.5654 21.1358C72.4933 21.1681 72.4124 21.184 72.3239 21.184C72.231 21.184 72.1479 21.1672 72.0749 21.134C72.0019 21.1004 71.9399 21.0553 71.8895 20.9987C71.8391 20.9421 71.8002 20.8753 71.7727 20.7987C71.7453 20.7222 71.7316 20.6408 71.7316 20.555C71.7316 20.4687 71.7453 20.3878 71.7727 20.3113C71.8002 20.2347 71.8391 20.1684 71.8895 20.1113C71.9399 20.0547 72.0019 20.0096 72.0749 19.976C72.1479 19.9428 72.231 19.926 72.3239 19.926C72.4124 19.926 72.4933 19.9419 72.5654 19.9742C72.638 20.006 72.6999 20.0503 72.7521 20.106C72.8039 20.1622 72.8446 20.2285 72.8729 20.3051C72.9016 20.3816 72.9162 20.4648 72.9162 20.555C72.9162 20.6452 72.9016 20.7284 72.8729 20.8049ZM72.8892 18.7759V19.811C72.8211 19.7238 72.7362 19.6535 72.6353 19.6013C72.534 19.5486 72.4133 19.5225 72.2726 19.5225C72.1346 19.5225 72.0063 19.5478 71.8873 19.5991C71.7683 19.6504 71.6648 19.7216 71.5759 19.8132C71.487 19.9047 71.4175 20.0136 71.3671 20.1401C71.3162 20.2666 71.291 20.4046 71.291 20.555C71.291 20.7054 71.3162 20.8434 71.3671 20.9699C71.4175 21.0964 71.487 21.2053 71.5759 21.2968C71.6648 21.3884 71.7683 21.4596 71.8873 21.5109C72.0063 21.5618 72.1346 21.5879 72.2726 21.5879C72.4133 21.5879 72.534 21.5618 72.6353 21.51C72.7362 21.4578 72.8211 21.3884 72.8892 21.3008V21.5366H73.3174V18.7759H72.8892Z" fill="#231F20"/>
<path d="M65.9604 20.1016C66.0152 20.0463 66.0798 20.0029 66.155 19.9724C66.2302 19.9419 66.3116 19.9264 66.3988 19.9264C66.4952 19.9264 66.5846 19.9419 66.6673 19.9724C66.7469 20.0021 66.8163 20.0436 66.8747 20.0963L67.0813 19.7535C67.0039 19.6915 66.9168 19.6411 66.8199 19.6017C66.6907 19.5486 66.5505 19.5225 66.3988 19.5225C66.247 19.5225 66.1068 19.5486 65.9781 19.6017C65.8489 19.6539 65.7374 19.7265 65.6437 19.8185C65.5503 19.9109 65.4769 20.0197 65.4238 20.1458C65.3703 20.271 65.3438 20.4077 65.3438 20.5554C65.3438 20.7027 65.3703 20.8394 65.4238 20.9651C65.4769 21.0907 65.5503 21.1995 65.6437 21.292C65.7374 21.384 65.8489 21.4565 65.9781 21.5092C66.1068 21.5618 66.247 21.5879 66.3988 21.5879C66.5505 21.5879 66.6907 21.5618 66.8199 21.5092C66.9168 21.4698 67.0039 21.4194 67.0813 21.3574L66.8747 21.0142C66.8163 21.0672 66.7469 21.1084 66.6673 21.1385C66.5846 21.169 66.4952 21.1845 66.3988 21.1845C66.3116 21.1845 66.2302 21.169 66.155 21.1385C66.0798 21.1075 66.0152 21.0646 65.9604 21.0093C65.9055 20.954 65.8626 20.8876 65.8312 20.8107C65.7998 20.7333 65.7843 20.6483 65.7843 20.5554C65.7843 20.4625 65.7998 20.3776 65.8312 20.3002C65.8626 20.2232 65.9055 20.1569 65.9604 20.1016Z" fill="#231F20"/>
<path d="M74.1927 21.4035V21.4362H74.2303C74.2379 21.4362 74.244 21.4349 74.248 21.4327C74.252 21.4305 74.2542 21.4261 74.2542 21.4203C74.2542 21.4146 74.252 21.4101 74.248 21.4075C74.244 21.4048 74.2379 21.4035 74.2303 21.4035H74.1927ZM74.2312 21.3602C74.2555 21.3602 74.2741 21.3659 74.2865 21.3765C74.2993 21.3876 74.3055 21.4022 74.3055 21.4203C74.3055 21.4345 74.3011 21.4464 74.2918 21.4557C74.283 21.465 74.2697 21.4712 74.2525 21.4738L74.3077 21.538H74.248L74.1985 21.4761H74.1927V21.538H74.1427V21.3602H74.2312ZM74.2197 21.5942C74.2392 21.5942 74.2582 21.5902 74.2755 21.5827C74.2931 21.5751 74.3086 21.5645 74.3215 21.5517C74.3343 21.5384 74.3445 21.5234 74.352 21.5057C74.3591 21.488 74.363 21.469 74.363 21.4491C74.363 21.4292 74.3591 21.4106 74.352 21.3929C74.3445 21.3752 74.3343 21.3597 74.3215 21.3469C74.3086 21.3336 74.2931 21.3234 74.2755 21.3159C74.2582 21.3084 74.2392 21.3044 74.2197 21.3044C74.1989 21.3044 74.1799 21.3084 74.1622 21.3159C74.1445 21.3234 74.129 21.3336 74.1162 21.3469C74.1029 21.3597 74.0928 21.3752 74.0852 21.3929C74.0777 21.4106 74.0742 21.4292 74.0742 21.4491C74.0742 21.469 74.0777 21.488 74.0852 21.5057C74.0928 21.5234 74.1029 21.5384 74.1162 21.5517C74.129 21.5645 74.1445 21.5751 74.1622 21.5827C74.1799 21.5902 74.1989 21.5942 74.2197 21.5942ZM74.2197 21.2487C74.248 21.2487 74.275 21.2544 74.2998 21.2651C74.3246 21.2752 74.3467 21.2898 74.3653 21.308C74.3838 21.3261 74.3984 21.3473 74.409 21.3712C74.4197 21.3955 74.425 21.4216 74.425 21.4491C74.425 21.4765 74.4197 21.5022 74.409 21.5265C74.3984 21.5508 74.3838 21.572 74.3653 21.5906C74.3467 21.6088 74.3246 21.6234 74.2998 21.634C74.275 21.6442 74.248 21.6499 74.2197 21.6499C74.1905 21.6499 74.1631 21.6442 74.1379 21.634C74.1127 21.6234 74.091 21.6088 74.0724 21.5906C74.0538 21.572 74.0392 21.5508 74.0286 21.5265C74.018 21.5022 74.0127 21.4765 74.0127 21.4491C74.0127 21.4216 74.018 21.3955 74.0286 21.3712C74.0392 21.3473 74.0538 21.3261 74.0724 21.308C74.091 21.2898 74.1127 21.2752 74.1379 21.2651C74.1631 21.2544 74.1905 21.2487 74.2197 21.2487Z" fill="#231F20"/>
<path d="M59.7058 10.398C59.7058 8.04644 60.8042 5.95234 62.5148 4.59741C61.2536 3.59813 59.6603 3.00007 57.9262 3.00007C53.8402 3.00007 50.5283 6.31241 50.5283 10.398C50.5283 14.4836 53.8402 17.7959 57.9262 17.7959C59.6603 17.7959 61.2536 17.1978 62.5148 16.1986C60.8042 14.8436 59.7058 12.7495 59.7058 10.398Z" fill="#ED1D26"/>
<path d="M59.7061 10.3982C59.7061 12.7497 60.8044 14.8438 62.515 16.1987C64.2256 14.8438 65.3244 12.7497 65.3244 10.3982C65.3244 8.04661 64.2256 5.95251 62.515 4.59758C60.8044 5.95251 59.7061 8.04661 59.7061 10.3982Z" fill="#F2571A"/>
<path d="M74.4637 14.3994V14.2079L74.4014 14.3729H74.3328L74.2709 14.2083V14.3994H74.2058V14.1234H74.2987L74.3673 14.3003L74.4359 14.1234H74.5283V14.3994H74.4637ZM74.0001 14.3994V14.1831H73.9121V14.1234H74.1523V14.1831H74.0647V14.3994H74.0001Z" fill="#F79511"/>
<path d="M67.1036 3.00007C65.3696 3.00007 63.7762 3.59857 62.5146 4.59741C64.2257 5.95234 65.324 8.04644 65.324 10.398C65.324 12.75 64.2257 14.8436 62.5146 16.1986C63.7762 17.1978 65.3696 17.7959 67.1036 17.7959C71.1892 17.7959 74.5015 14.4836 74.5015 10.398C74.5015 6.31241 71.1892 3.00007 67.1036 3.00007Z" fill="#F79511"/>
<path d="M94.5283 1.90735e-06V24H118.387V16.0795C118.481 15.9422 118.528 15.7664 118.528 15.5517C118.528 15.3059 118.481 15.1536 118.387 15.0255V1.90735e-06H94.5283Z" fill="url(#paint0_radial_16_1166)"/>
<path d="M94.5284 12.1514H95.6742L95.9325 11.5268H96.5109L96.7686 12.1514H99.0229V11.6739L99.2242 12.1533H100.394L100.596 11.6667V12.1514H106.198L106.196 11.1261H106.304C106.38 11.1287 106.402 11.1358 106.402 11.2614V12.1514H109.3V11.9127C109.533 12.0382 109.897 12.1514 110.375 12.1514H111.594L111.855 11.5268H112.434L112.689 12.1514H115.038V11.558L115.394 12.1514H117.276V8.22949H115.413V8.69266L115.152 8.22949H113.241V8.69266L113.001 8.22949H110.419C109.987 8.22949 109.607 8.28996 109.3 8.4584V8.22949H107.518V8.4584C107.323 8.28479 107.056 8.22949 106.76 8.22949H100.25L99.8135 9.24244L99.365 8.22949H97.3144V8.69266L97.0892 8.22949H95.3404L94.5283 10.0942V12.1514H94.5284ZM116.678 11.599H115.728L114.457 9.48849V11.599H113.091L112.83 10.9718H111.437L111.184 11.599H110.399C110.074 11.599 109.661 11.5268 109.427 11.288C109.191 11.0492 109.069 10.7259 109.069 10.2145C109.069 9.79748 109.142 9.41614 109.43 9.11496C109.647 8.89054 109.987 8.78698 110.449 8.78698H111.098V9.38951H110.462C110.218 9.38951 110.079 9.42607 109.946 9.55617C109.832 9.67458 109.754 9.89841 109.754 10.1931C109.754 10.4943 109.813 10.7116 109.938 10.8535C110.041 10.9648 110.229 10.9986 110.405 10.9986H110.706L111.652 8.78706H112.656L113.792 11.4469V8.78706H114.813L115.992 10.7455V8.78706H116.678V11.599ZM108.74 11.599H108.056V8.78706H108.74V11.599ZM107.667 9.54439C107.667 9.99272 107.369 10.2244 107.195 10.2939C107.341 10.3499 107.467 10.4488 107.526 10.5307C107.621 10.6706 107.637 10.7955 107.637 11.0466V11.599H106.961L106.958 11.2444C106.958 11.0752 106.975 10.8319 106.853 10.6966C106.755 10.5977 106.605 10.5763 106.364 10.5763H105.644V11.599H104.973V8.78698H106.516C106.859 8.78698 107.111 8.79614 107.328 8.92167C107.54 9.04736 107.667 9.23065 107.667 9.54439ZM104.509 11.599H102.268V8.78698H104.509V9.37263H102.939V9.87941H104.471V10.4559H102.939V11.0174H104.509V11.599ZM101.769 11.599H101.081L101.079 9.39664L100.106 11.599H99.5175L98.5426 9.39477V11.599H97.1787L96.921 10.9718H95.5248L95.2645 11.599H94.5362L95.737 8.78698H96.7334L97.8739 11.4494V8.78698H98.9684L99.846 10.6947L100.652 8.78698H101.769V11.599H101.769ZM112.602 10.3857L112.138 9.26466L111.676 10.3857H112.602ZM106.79 9.9392C106.698 9.99535 106.589 9.99722 106.459 9.99722H105.644V9.37263H106.47C106.586 9.37263 106.708 9.37789 106.788 9.42327C106.875 9.46432 106.928 9.55151 106.928 9.67195C106.928 9.79485 106.877 9.89374 106.79 9.9392ZM96.6789 10.3857L96.22 9.26466L95.7636 10.3857" fill="white"/>
<path d="M107.526 14.5532C107.526 15.3347 106.944 15.4959 106.358 15.4959H105.522V16.4393H104.218L103.392 15.5083L102.534 16.4393H99.8779V13.6266H102.575L103.4 14.5486L104.253 13.6266H106.396C106.928 13.6266 107.526 13.7743 107.526 14.5532ZM102.195 15.8531H100.546V15.2936H102.018V14.7197H100.546V14.2084H102.227L102.961 15.028L102.195 15.8531ZM104.854 16.1835L103.824 15.0378L104.854 13.9286V16.1835ZM106.388 14.9247H105.522V14.2085H106.396C106.638 14.2085 106.806 14.3074 106.806 14.5532C106.806 14.7966 106.646 14.9247 106.388 14.9247ZM110.913 13.6266H113.151V14.2084H111.58V14.7197H113.112V15.2936H111.58V15.8531L113.151 15.8557V16.4393H110.913V13.6266ZM110.065 15.1322C110.215 15.1875 110.337 15.2865 110.394 15.3683C110.489 15.5056 110.502 15.6338 110.505 15.8818V16.4393H109.832V16.0874C109.832 15.9183 109.848 15.6676 109.723 15.5369C109.625 15.4361 109.476 15.412 109.231 15.412H108.515V16.4393H107.841V13.6266H109.389C109.728 13.6266 109.976 13.6416 110.196 13.7595C110.408 13.8875 110.541 14.0631 110.541 14.384C110.541 14.8329 110.242 15.062 110.065 15.1322ZM109.66 14.7822C109.571 14.8355 109.46 14.8402 109.329 14.8402H108.515V14.2085H109.34C109.46 14.2085 109.579 14.211 109.66 14.2592C109.747 14.3047 109.799 14.3919 109.799 14.5122C109.799 14.6326 109.747 14.7295 109.66 14.7822ZM115.711 14.956C115.842 15.0913 115.912 15.2623 115.912 15.5518C115.912 16.1569 115.535 16.4393 114.858 16.4393H113.552V15.8363H114.853C114.98 15.8363 115.071 15.8194 115.127 15.7665C115.173 15.7231 115.206 15.6598 115.206 15.5832C115.206 15.5011 115.171 15.4361 115.125 15.3971C115.073 15.3542 115.003 15.3347 114.886 15.3347C114.259 15.3133 113.473 15.3542 113.473 14.4641C113.473 14.0561 113.729 13.6267 114.432 13.6267H115.776V14.2254H114.546C114.424 14.2254 114.345 14.2299 114.278 14.2762C114.204 14.3218 114.177 14.3893 114.177 14.4785C114.177 14.5847 114.239 14.6568 114.324 14.6881C114.394 14.7128 114.47 14.7199 114.585 14.7199L114.946 14.7297C115.31 14.7387 115.56 14.8018 115.711 14.956ZM118.386 16.0796C118.223 16.3183 117.906 16.4393 117.476 16.4393H116.181V15.8363H117.471C117.599 15.8363 117.689 15.8194 117.742 15.7665C117.789 15.7231 117.822 15.6598 117.822 15.5832C117.822 15.5011 117.789 15.4362 117.74 15.3971C117.691 15.3542 117.62 15.3347 117.503 15.3347C116.874 15.3133 116.088 15.3542 116.088 14.4641C116.088 14.0561 116.347 13.6267 117.051 13.6267H118.386V13.0672H117.145C116.771 13.0672 116.499 13.1571 116.306 13.2969V13.0672H114.47C114.177 13.0672 113.832 13.14 113.669 13.2969V13.0672H110.391V13.2969C110.13 13.1082 109.69 13.0672 109.487 13.0672H107.325V13.2969C107.118 13.0964 106.659 13.0672 106.379 13.0672H103.96L103.406 13.6679L102.887 13.0672H99.2725V16.9917H102.819L103.39 16.3816L103.927 16.9917L106.114 16.9937V16.0705H106.329C106.619 16.0749 106.961 16.0632 107.263 15.9325V16.9917H109.066V15.9687H109.153C109.264 15.9687 109.275 15.9734 109.275 16.0846V16.9915H114.753C115.101 16.9915 115.464 16.9023 115.665 16.7404V16.9915H117.403C117.764 16.9915 118.118 16.9407 118.386 16.8106V16.0796ZM118.386 14.2253H117.164C117.042 14.2253 116.961 14.2298 116.893 14.276C116.822 14.3216 116.795 14.3891 116.795 14.4784C116.795 14.5845 116.854 14.6566 116.941 14.6879C117.012 14.7126 117.088 14.7197 117.2 14.7197L117.563 14.7295C117.93 14.7387 118.175 14.8018 118.324 14.956C118.351 14.9773 118.368 15.0015 118.386 15.0255" fill="white"/>
<path fill-rule="evenodd" clip-rule="evenodd" d="M8.85158 48.0002H5.8876C4.5777 48.062 3.50699 48.5896 3.19781 49.6775C3.0368 50.2451 2.9479 50.8681 2.82187 51.4561C2.18102 54.4469 1.613 57.5194 1 60.4502H24.0778C25.8622 60.4502 27.0871 60.0732 27.4184 58.6572C27.5723 57.9993 27.7194 57.2542 27.8668 56.5315C28.4402 53.7136 29.0143 50.896 29.6016 48.0002H8.85158Z" fill="#961A1F"/>
<path fill-rule="evenodd" clip-rule="evenodd" d="M20.7808 55.4322C20.4605 55.746 19.5612 55.8349 19.6529 55.0852C19.7297 54.4625 20.4073 54.3301 21.1424 54.4201C21.0874 54.7606 21.0253 55.1934 20.7808 55.4322ZM19.7686 53.003C19.7379 53.1748 19.6911 53.3304 19.6529 53.4947C20.0199 53.4025 21.1624 53.1205 21.2724 53.6103C21.3088 53.7731 21.2463 53.9459 21.2002 54.073C20.167 53.9752 19.3252 54.1466 19.1035 54.8827C18.9553 55.3758 19.1203 55.861 19.4359 55.9963C20.0446 56.2569 20.785 55.9584 21.041 55.5479C21.0146 55.69 20.9893 55.8335 20.9975 56.0106H21.5326C21.5383 55.4983 21.613 55.0834 21.6919 54.6225C21.759 54.2298 21.8854 53.841 21.8654 53.4947C21.8193 52.701 20.5048 52.9816 19.7686 53.003ZM25.1332 55.6778C24.7148 55.6871 24.5066 55.4279 24.497 54.9984C24.4802 54.2462 24.8104 53.4104 25.4802 53.3354C25.7922 53.3008 26.0182 53.3733 26.2467 53.4515C26.0372 54.2962 26.1128 55.6571 25.1332 55.6778ZM26.5213 51.7017C26.4684 52.1687 26.3967 52.6182 26.3046 53.0462C24.7794 52.5635 23.844 53.6857 23.8608 55.0709C23.8643 55.3387 23.9104 55.6043 24.0775 55.7939C24.3663 56.1202 25.1932 56.1984 25.6105 55.9238C25.6912 55.871 25.7737 55.7742 25.8276 55.7071C25.8676 55.6564 25.9315 55.5243 25.9429 55.5625C25.9211 55.7092 25.8883 55.8453 25.8854 56.0106H26.4492C26.558 54.4515 26.894 53.1198 27.1432 51.7017H26.5213ZM10.601 55.4468C10.2687 55.7989 9.45072 55.7939 9.38646 55.2009C9.35861 54.9427 9.45465 54.6725 9.50214 54.4058C9.55033 54.1355 9.58496 53.8763 9.63209 53.6392C9.95984 53.239 10.9227 53.1908 11.0202 53.856C11.1052 54.4336 10.8767 55.1548 10.601 55.4468ZM11.0927 53.003C10.5664 52.8052 9.9252 53.0412 9.64673 53.2658C9.6478 53.2754 9.6403 53.2769 9.63209 53.2776L9.64673 53.2658C9.64673 53.2651 9.64673 53.2644 9.64637 53.2633C9.65137 53.1666 9.68529 53.0994 9.69028 53.003H9.15511C8.93197 54.4865 8.66778 55.9281 8.38895 57.3555H9.01052C9.10049 56.7996 9.15975 56.2134 9.28542 55.6925C9.42716 56.2401 10.3543 56.1355 10.746 55.9238C11.5529 55.4875 12.1755 53.4097 11.0927 53.003ZM14.0427 54.0441H12.5821C12.6282 53.7082 12.9306 53.3394 13.4065 53.3211C13.8542 53.304 14.1748 53.4854 14.0427 54.0441ZM13.4497 52.9452C13.0002 52.9798 12.6207 53.1091 12.3508 53.3936C12.0198 53.7421 11.7517 54.5132 11.8303 55.2155C11.942 56.2173 13.1894 56.1812 14.187 55.9381C14.2041 55.7624 14.2466 55.6121 14.2737 55.4468C13.8628 55.6007 13.1495 55.8153 12.7264 55.5479C12.4076 55.3462 12.4058 54.8353 12.5097 54.3911C13.1802 54.3697 13.8771 54.374 14.5486 54.3911C14.5911 54.0766 14.7132 53.7331 14.6064 53.4225C14.4658 53.012 13.962 52.9056 13.4497 52.9452ZM7.98373 53.003C7.96695 53.0055 7.96802 53.0259 7.96945 53.0462C7.83235 54.0709 7.6467 55.047 7.44891 56.0106H8.07048C8.22008 54.9791 8.39109 53.9695 8.6053 53.003H7.98373ZM24.2081 53.0173C23.6583 52.7428 23.2006 53.2037 23.0221 53.48C23.0732 53.3383 23.076 53.1483 23.1235 53.003H22.5737C22.4255 54.0355 22.247 55.0381 22.0389 56.0106H22.6751C22.679 55.6121 22.7572 55.3172 22.8197 54.9263C22.9525 54.0916 23.1478 53.1762 24.121 53.4515C24.1535 53.3101 24.1667 53.1498 24.2081 53.0173ZM17.2238 55.3022C17.1663 55.1541 17.1516 54.9095 17.1659 54.7239C17.1981 54.3058 17.3505 53.7971 17.5854 53.5668C17.9096 53.249 18.5497 53.3019 19.0603 53.48C19.076 53.3079 19.1103 53.1548 19.1324 52.9884C18.2952 52.8517 17.5005 52.937 17.0792 53.379C16.6668 53.8117 16.3965 54.8063 16.5876 55.4322C16.8114 56.1645 17.8139 56.2044 18.6265 55.9238C18.6622 55.7767 18.6811 55.6125 18.7132 55.4611C18.2695 55.6918 17.4208 55.8114 17.2238 55.3022ZM16.8764 53.003C16.3255 52.7803 15.8921 53.1566 15.6911 53.5089C15.7364 53.3522 15.7553 53.1687 15.7921 53.003H15.2427C15.1084 54.0448 14.9106 55.0231 14.7221 56.0106H15.3437C15.4312 55.4243 15.4687 54.6339 15.6622 54.073C15.8167 53.625 16.2212 53.243 16.8043 53.4515C16.8128 53.2858 16.86 53.1598 16.8764 53.003ZM6.8559 51.7881C6.76736 52.3647 6.66704 52.9298 6.56672 53.4947C5.92265 53.5014 5.26502 53.5264 4.64345 53.48C4.76091 52.9274 4.84517 52.3418 4.96156 51.7881H4.26787C4.01902 53.198 3.79303 54.63 3.51562 56.0106H4.22431C4.33534 55.3026 4.43924 54.5868 4.58561 53.9142C5.19005 53.8992 5.91373 53.8731 6.49424 53.9284C6.37464 54.6282 6.23005 55.303 6.11866 56.0106H6.82699C7.05476 54.5804 7.29468 53.1623 7.57887 51.7881H6.8559ZM8.61994 52.4247C8.74382 52.339 8.90341 51.9502 8.72133 51.7881C8.6635 51.737 8.56674 51.7221 8.43215 51.7449C8.30719 51.766 8.23507 51.8088 8.18616 51.8752C8.10761 51.982 8.03585 52.3047 8.15724 52.4247C8.27577 52.5414 8.54104 52.4789 8.61994 52.4247Z" fill="white"/>
<path fill-rule="evenodd" clip-rule="evenodd" d="M59.6016 44C65.124 44 69.6009 48.4769 69.6009 54C69.6009 59.5231 65.124 64 59.6016 64C54.0785 64 49.6016 59.5231 49.6016 54C49.6016 48.4769 54.0785 44 59.6016 44Z" fill="#080A0F"/>
<path d="M59.6016 44C65.124 44 69.6009 48.4769 69.6009 54C69.6009 59.5231 65.124 64 59.6016 64C54.0785 64 49.6016 59.5231 49.6016 54C49.6016 48.4769 54.0785 44 59.6016 44Z" stroke="#1B181A" stroke-width="0.756" stroke-miterlimit="22.926"/>
<path fill-rule="evenodd" clip-rule="evenodd" d="M56.6238 53.231L53.5539 54.5541C53.5495 54.5012 53.547 54.4477 53.547 54.3935C53.547 53.4227 54.3336 52.6349 55.3051 52.6349C55.8303 52.6349 56.3014 52.8657 56.6238 53.231ZM55.3051 51.3205C56.7532 51.3205 57.9673 52.3225 58.2928 53.6716L57.0538 54.2131L57.0532 54.2106L55.7861 54.7675L52.7467 56.0962C52.4213 55.6089 52.2314 55.0233 52.2314 54.3935C52.2314 52.6965 53.6074 51.3205 55.3051 51.3205Z" fill="white"/>
<path fill-rule="evenodd" clip-rule="evenodd" d="M57.4519 56.5917C56.3516 57.6359 54.896 57.7386 53.6172 56.962L54.3397 55.8636C55.0672 56.2979 55.799 56.2276 56.5327 55.6507L57.4519 56.5917Z" fill="white"/>
<path fill-rule="evenodd" clip-rule="evenodd" d="M58.7034 55.8309L58.6953 50.0197H59.7968V55.6741C59.7968 55.7282 59.8037 55.7762 59.8746 55.8042L60.8323 56.1763L60.4011 57.2983L59.279 56.8235C58.8534 56.6437 58.704 56.3829 58.7034 55.8309Z" fill="white"/>
<path fill-rule="evenodd" clip-rule="evenodd" d="M62.849 55.7332C62.4364 55.4121 62.17 54.9117 62.17 54.3479C62.17 53.8476 62.3804 53.3964 62.717 53.0765L62.0063 51.924C61.2913 52.4903 60.832 53.3653 60.832 54.3479C60.832 55.4077 61.3647 56.3424 62.1775 56.8994L62.849 55.7332Z" fill="#43A0DB"/>
<path fill-rule="evenodd" clip-rule="evenodd" d="M63.3315 52.6976C63.5169 52.631 63.7161 52.5943 63.9246 52.5943C64.6757 52.5943 65.3161 53.0666 65.5662 53.73L66.9285 53.6161C66.5999 52.2619 65.3802 51.2563 63.9246 51.2563C63.5138 51.2563 63.1211 51.3372 62.7627 51.4828L63.3315 52.6976Z" fill="#EFEF25"/>
<path fill-rule="evenodd" clip-rule="evenodd" d="M65.6762 54.4334C65.632 55.3625 64.8641 56.1024 63.9244 56.1024C63.7769 56.1024 63.6337 56.0838 63.4968 56.0496L62.9629 57.2867C63.2653 57.3863 63.5889 57.4404 63.9244 57.4404C65.5891 57.4404 66.9463 56.1242 67.0129 54.4751L65.6762 54.4334Z" fill="#EC3321"/>
<path fill-rule="evenodd" clip-rule="evenodd" d="M111.379 46H89.6006V50.2563C89.6111 56.7495 95.1972 62.0079 102.052 62H116.601V50.8941C116.601 49.5812 116.199 48.3567 115.214 47.4234C114.226 46.4932 112.77 45.9969 111.379 46Z" fill="#B5DC19"/>
<path fill-rule="evenodd" clip-rule="evenodd" d="M94.7311 56.5347L94.7132 56.4846L93.9407 54.311L93.9229 54.261L93.9734 54.2433L96.2302 53.4559C96.3102 53.4278 96.3921 53.4138 96.4764 53.4138C96.7891 53.4138 97.0687 53.6097 97.1714 53.9033L97.7169 55.436L97.7348 55.4854L97.6837 55.5032L94.7816 56.5164L94.7311 56.5347Z" fill="#A3CA3F"/>
<path fill-rule="evenodd" clip-rule="evenodd" d="M95.8291 56.0948L94.7629 56.4659L93.9922 54.2922L95.8291 53.6514L96.249 53.5055C96.3247 53.4793 96.4011 53.4671 96.4768 53.4671C96.7594 53.4671 97.0223 53.641 97.1214 53.92L97.6674 55.4533L95.8291 56.0948ZM95.8291 53.5391L93.9558 54.1941L93.8555 54.2288L93.8905 54.3289L94.6632 56.5019L94.6982 56.6021L94.798 56.5666L95.8291 56.2077L97.7019 55.5533L97.8028 55.5185L97.7671 55.4179L97.2229 53.8845C97.1115 53.5708 96.8123 53.3603 96.4768 53.3603C96.387 53.3603 96.2989 53.3767 96.2133 53.406L95.8291 53.5391Z" fill="white"/>
<path fill-rule="evenodd" clip-rule="evenodd" d="M96.8097 58.644H96.8091C96.0175 58.644 95.3094 58.1465 95.0459 57.4062L94.8489 56.8495L94.8311 56.7994L94.8816 56.7817L97.9517 55.7093C98.0323 55.6825 98.1173 55.6672 98.2029 55.6672C98.5242 55.6672 98.8111 55.8698 98.9195 56.1689L99.4839 57.765L99.5025 57.8151L99.452 57.8328L97.4315 58.539C97.2301 58.6086 97.0215 58.644 96.8097 58.644Z" fill="#194084"/>
<path fill-rule="evenodd" clip-rule="evenodd" d="M97.1673 58.5564C97.0478 58.5808 96.9285 58.5918 96.8096 58.5918C96.0611 58.5918 95.3598 58.1285 95.0969 57.3887L94.8994 56.8314L97.1673 56.0404L97.9695 55.7601C98.047 55.7328 98.1258 55.7211 98.2034 55.7211C98.4945 55.7211 98.766 55.9 98.8683 56.1874L99.4352 57.7837L97.4142 58.4893C97.3317 58.5186 97.2498 58.54 97.1673 58.5564ZM97.1673 55.9287L94.8642 56.7314L94.7627 56.7679L94.7978 56.8668L94.996 57.4236C95.2669 58.1865 95.9958 58.6968 96.8096 58.6968C96.9303 58.6968 97.0497 58.6864 97.1673 58.6639C97.2621 58.6462 97.3569 58.6211 97.4498 58.5882L99.4697 57.8825L99.5707 57.8478L99.5356 57.7482L98.9686 56.1527C98.8553 55.8292 98.5482 55.615 98.2034 55.615C98.1117 55.615 98.0212 55.6302 97.9344 55.6601L97.1673 55.9287Z" fill="white"/>
<path fill-rule="evenodd" clip-rule="evenodd" d="M101.311 58.6826C100.274 58.6826 99.7251 58.1583 99.7251 57.1635C99.7251 56.5616 99.9111 56.0116 100.248 55.6167C100.612 55.1906 101.124 54.9666 101.731 54.9666C102.188 54.9666 102.572 55.0728 102.847 55.2736C103.159 55.5044 103.323 55.8449 103.332 56.2893V56.3173H103.303H102.341H102.313V56.2893C102.313 55.9108 102.123 55.7412 101.698 55.7412C100.943 55.7412 100.745 56.6849 100.745 57.1835C100.745 57.5137 100.854 57.9068 101.379 57.9068C101.861 57.9068 102.057 57.5162 102.13 57.283L102.137 57.2622H102.158H103.12H103.16L103.147 57.3001C102.843 58.2041 102.208 58.6826 101.311 58.6826ZM104.917 57.9649C105.319 57.8769 105.471 57.5461 105.564 57.222L105.64 56.9516C105.429 57.0536 105.189 57.0706 104.957 57.0853L104.917 57.0877L104.877 57.0913C104.466 57.1359 104.192 57.2446 104.192 57.6261C104.192 57.8934 104.461 57.9874 104.691 57.9874C104.773 57.9874 104.848 57.9801 104.917 57.9649ZM104.917 56.4908L104.955 56.4859C105.567 56.426 105.847 56.398 105.847 56.0549C105.847 55.6887 105.403 55.66 105.266 55.66C105.133 55.66 105.015 55.6845 104.917 55.7254C104.736 55.8059 104.618 55.9505 104.584 56.1477L103.655 56.1709C103.684 55.7241 103.882 55.4147 104.218 55.2162C104.412 55.1027 104.645 55.027 104.917 54.9905C105.042 54.9734 105.173 54.9666 105.314 54.9666C105.917 54.9666 106.343 55.0881 106.582 55.3279C106.724 55.4701 106.797 55.6569 106.799 55.8785C106.799 56.0353 106.773 56.2332 106.724 56.4969L106.412 57.8952C106.381 58.01 106.366 58.2157 106.366 58.3579C106.366 58.4166 106.378 58.4934 106.398 58.5508L106.411 58.5881H106.37H105.409L105.38 58.2895C105.253 58.4135 105.095 58.5111 104.917 58.5795C104.739 58.6466 104.541 58.6826 104.339 58.6826C103.534 58.6826 103.173 58.2102 103.173 57.7414C103.173 57.0767 103.671 56.6348 104.539 56.531L104.917 56.4908ZM107.836 58.5881H107.813H106.851H106.816L106.824 58.5551L107.555 55.082L107.56 55.06H107.582H108.498H108.533L108.526 55.0948L108.415 55.5764C108.65 55.1961 109.081 54.9666 109.574 54.9666C109.676 54.9666 109.771 54.9721 109.875 54.9861L109.907 54.9892L109.901 55.0204L109.704 55.9463L109.698 55.9749L109.669 55.9695C109.647 55.964 109.622 55.9591 109.599 55.9536C109.491 55.9317 109.379 55.9084 109.269 55.9084C108.509 55.9084 108.28 56.5078 108.166 57.0279L107.841 58.5655L107.836 58.5881ZM111.264 57.8855C111.837 57.7499 112.106 56.9919 112.106 56.4639C112.106 56.0049 111.864 55.7412 111.444 55.7412C111.381 55.7412 111.321 55.7479 111.264 55.7601C110.685 55.8877 110.423 56.6257 110.423 57.1635C110.423 57.5058 110.595 57.9068 111.078 57.9068C111.144 57.9068 111.205 57.8995 111.264 57.8855ZM111.264 54.9678L111.343 54.9666C111.687 54.9666 112.137 55.1016 112.324 55.4788L112.696 53.7593L113.686 53.7367L112.691 58.5655L111.736 58.5881L111.78 58.2254C111.654 58.3969 111.477 58.5251 111.264 58.5996C111.114 58.6539 110.947 58.6826 110.766 58.6826C109.926 58.6826 109.403 58.1467 109.403 57.2836C109.403 56.6763 109.573 56.1111 109.879 55.6942C110.214 55.2382 110.692 54.9868 111.264 54.9678ZM111.814 53.0244C111.413 53.0244 111.043 52.9371 110.773 52.779C110.436 52.5806 110.259 52.273 110.259 51.8872V51.7432V51.7139H110.288H111.203H111.232V51.7432V51.8598C111.232 52.1571 111.573 52.3121 111.911 52.3121C112.051 52.3121 112.506 52.284 112.506 51.9147C112.506 51.6955 112.398 51.6236 112.172 51.5515L111.416 51.3098C110.911 51.1481 110.619 50.943 110.619 50.3735C110.619 49.5757 111.432 49.2173 112.237 49.2173C112.815 49.2173 113.215 49.3371 113.46 49.5836C113.649 49.774 113.742 50.042 113.737 50.382V50.4113H113.707H112.792H112.763L112.762 50.382C112.755 50.0817 112.579 49.9297 112.237 49.9297C111.975 49.9297 111.663 49.9853 111.663 50.2502C111.663 50.371 111.734 50.4705 112.093 50.5804L112.587 50.7385C113.087 50.902 113.549 51.1426 113.549 51.7846C113.549 52.1961 113.356 52.5281 112.991 52.7442C112.689 52.9243 112.271 53.0244 111.814 53.0244ZM105.836 52.9286H105.814H104.829H104.792L104.8 52.8919L105.236 50.808C105.266 50.7025 105.298 50.473 105.298 50.382C105.298 50.1842 105.066 50.0463 104.856 50.0463C104.158 50.0463 103.94 50.7226 103.879 51.0131L103.478 52.9047L103.473 52.9286H103.449H102.464H102.427L102.435 52.8919L103.184 49.3364L103.189 49.3138H103.213H104.156H104.192L104.184 49.3499L104.094 49.7521C104.412 49.3968 104.821 49.2173 105.314 49.2173C106.009 49.2173 106.391 49.5671 106.391 50.202C106.391 50.3038 106.355 50.5114 106.286 50.8209L105.843 52.9047L105.836 52.9286ZM96.2869 50.7409H95.489L95.2101 52.0313H96.2869H96.5399C97.0558 52.0313 97.3635 51.7463 97.3635 51.2695C97.3635 50.7818 96.9351 50.7409 96.5331 50.7409H96.2869ZM96.2869 48.8548H95.8849L95.6534 49.9468H96.2869H96.852C97.2042 49.9468 97.5581 49.7557 97.5581 49.3297C97.5581 49.0062 97.3845 48.8548 97.0121 48.8548H96.2869ZM96.2869 52.9286H93.9463L94.9571 47.9808L96.2869 47.9587H97.0669C97.6332 47.9587 98.0013 48.0302 98.2593 48.1865C98.5591 48.3714 98.7062 48.6808 98.7062 49.1362C98.7062 49.4237 98.6157 49.6972 98.4532 49.9089C98.2993 50.1086 98.0894 50.2416 97.845 50.2929C98.2587 50.4394 98.5123 50.8135 98.5123 51.289C98.5123 51.7963 98.3091 52.2223 97.9257 52.5166C97.5815 52.7814 97.1063 52.9286 96.5885 52.9286H96.2869ZM108.528 50.7098H109.315C109.31 50.3784 109.226 50.0127 108.678 50.0127C108.626 50.0127 108.578 50.0146 108.528 50.0212C108.166 50.0701 107.902 50.3014 107.742 50.7098H108.528ZM108.528 49.2198L108.623 49.2173C109.133 49.2173 109.559 49.3554 109.853 49.6153C110.165 49.8913 110.324 50.291 110.324 50.8008C110.324 50.9875 110.304 51.1829 110.268 51.3635L108.528 51.3868H107.623L107.619 51.5655C107.619 51.9885 107.896 52.2303 108.38 52.2303C108.432 52.2303 108.484 52.2253 108.528 52.2168C108.807 52.1606 108.965 51.9532 109.091 51.7541L110.101 51.7426H110.144L110.128 51.781C109.822 52.5636 109.336 52.9426 108.528 53.0127C108.437 53.0201 108.341 53.0244 108.242 53.0244C107.223 53.0244 106.616 52.4329 106.616 51.4404C106.616 50.8599 106.807 50.3118 107.153 49.8986C107.503 49.4835 107.989 49.2449 108.528 49.2198ZM100.482 50.7787L100.521 50.7751C101.149 50.7128 101.435 50.6853 101.435 50.3332C101.435 49.959 100.98 49.9297 100.84 49.9297C100.705 49.9297 100.584 49.9523 100.482 49.9975C100.297 50.0781 100.176 50.2269 100.141 50.4272L99.1896 50.4516C99.2196 49.9938 99.4235 49.6782 99.7669 49.4744C99.964 49.3572 100.203 49.2802 100.482 49.2431C100.609 49.2272 100.746 49.2173 100.889 49.2173C101.507 49.2173 101.944 49.3431 102.188 49.5885C102.332 49.7344 102.407 49.923 102.41 50.1488C102.41 50.3143 102.385 50.5114 102.333 50.7849L102.015 52.2168C101.981 52.3352 101.966 52.5452 101.966 52.693C101.966 52.7522 101.98 52.8309 101.999 52.8888L102.013 52.9286H101.971H100.987L100.956 52.6203C100.827 52.7485 100.665 52.8486 100.482 52.9187C100.3 52.9872 100.097 53.0244 99.8901 53.0244C99.0651 53.0244 98.6952 52.5391 98.6952 52.0606C98.6952 51.38 99.2055 50.929 100.094 50.8209L100.482 50.7787ZM100.515 52.2852C100.927 52.1954 101.05 51.8616 101.145 51.529L101.225 51.2499C101.006 51.3556 100.762 51.3732 100.523 51.3885L100.441 51.3946C100.021 51.4404 99.7387 51.5515 99.7387 51.9427C99.7387 52.2162 100.014 52.3121 100.251 52.3121C100.336 52.3121 100.446 52.3017 100.515 52.2852Z" fill="#194084"/>
<path d="M24 98.7579C24 100.812 22.3276 102.484 20.2738 102.484H0V87.7262C0 85.6724 1.67237 84 3.72616 84H24V98.7579Z" fill="white"/>
<path d="M17.3984 94.9733H18.9388C18.9828 94.9733 19.0855 94.9586 19.1295 94.9586C19.4229 94.8999 19.6723 94.6358 19.6723 94.2691C19.6723 93.917 19.4229 93.653 19.1295 93.5796C19.0855 93.5649 18.9975 93.5649 18.9388 93.5649H17.3984V94.9733Z" fill="url(#paint1_linear_16_1166)"/>
<path d="M18.7627 85.2471C17.2957 85.2471 16.0928 86.4353 16.0928 87.917V90.6896H19.863C19.951 90.6896 20.0537 90.6896 20.127 90.7043C20.9779 90.7483 21.6087 91.1884 21.6087 91.9512C21.6087 92.5527 21.1833 93.0661 20.3911 93.1688V93.1982C21.2566 93.2569 21.9168 93.741 21.9168 94.4891C21.9168 95.296 21.1833 95.8241 20.215 95.8241H16.0781V101.252H19.995C21.462 101.252 22.6649 100.064 22.6649 98.582V85.2471H18.7627Z" fill="url(#paint2_linear_16_1166)"/>
<path d="M19.4816 92.1269C19.4816 91.7748 19.2322 91.5401 18.9388 91.4961C18.9094 91.4961 18.8361 91.4814 18.7921 91.4814H17.3984V92.7724H18.7921C18.8361 92.7724 18.9241 92.7724 18.9388 92.7577C19.2322 92.7137 19.4816 92.479 19.4816 92.1269Z" fill="url(#paint3_linear_16_1166)"/>
<path d="M4.00491 85.2471C2.53792 85.2471 1.33498 86.4353 1.33498 87.917V94.5038C2.08315 94.8705 2.86065 95.1053 3.63816 95.1053C4.56237 95.1053 5.06114 94.5478 5.06114 93.785V90.6749H7.34965V93.7703C7.34965 94.9732 6.60149 95.9561 4.06359 95.9561C2.52325 95.9561 1.32031 95.6187 1.32031 95.6187V101.237H5.23718C6.70418 101.237 7.90711 100.049 7.90711 98.5674V85.2471H4.00491Z" fill="url(#paint4_linear_16_1166)"/>
<path d="M11.3838 85.2471C9.9168 85.2471 8.71387 86.4353 8.71387 87.917V91.4084C9.38868 90.8363 10.5623 90.4696 12.4547 90.5576C13.4669 90.6016 14.5525 90.8803 14.5525 90.8803V92.0099C14.0097 91.7312 13.3642 91.4818 12.528 91.4231C11.0904 91.3204 10.2249 92.0246 10.2249 93.2569C10.2249 94.5038 11.0904 95.208 12.528 95.0906C13.3642 95.0319 14.0097 94.7679 14.5525 94.5038V95.6334C14.5525 95.6334 13.4816 95.9121 12.4547 95.9561C10.5623 96.0441 9.38868 95.6774 8.71387 95.1053V101.267H12.6307C14.0977 101.267 15.3007 100.078 15.3007 98.5967V85.2471H11.3838Z" fill="url(#paint5_linear_16_1166)"/>
<path d="M54.6945 84.9999H57.5232C57.5232 84.9999 59.0056 84.9999 60.2763 85.9529C60.2763 85.9529 62.2579 87.1328 62.2881 89.8027C62.2881 89.8027 62.4243 92.0793 60.3065 93.6071C60.3065 93.6071 59.2628 94.4996 57.4778 94.6357H54.6945C54.6945 94.6357 52.7734 94.6206 51.3212 93.0323C51.3212 93.0323 50.0506 91.686 50.0959 89.8178C50.0959 89.8178 50.0354 87.8438 51.4573 86.4067C51.4573 86.4067 52.6372 85.0907 54.6945 84.9999Z" fill="#0079C1"/>
<path d="M59.4224 89.803C59.4224 87.351 57.4347 85.3632 54.9827 85.3632C52.5307 85.3632 50.543 87.351 50.543 89.803C50.543 92.255 52.5307 94.2427 54.9827 94.2427C57.4347 94.2427 59.4224 92.255 59.4224 89.803Z" fill="white"/>
<path d="M53.9837 87.1933V92.4121C53.9837 92.4121 52.1836 91.7919 52.1836 89.7195C52.1836 89.7195 52.1534 87.9497 53.9837 87.1933Z" fill="#0079C1"/>
<path d="M55.9893 87.1933V92.4121C55.9893 92.4121 57.7893 91.7919 57.7893 89.7195C57.7893 89.7195 57.8196 87.9497 55.9893 87.1933Z" fill="#0079C1"/>
<path d="M44.9906 95.8688V98.6446C44.9906 98.6446 44.9452 99.0228 45.3687 99.0606C45.3687 99.0606 46.9949 99.2497 46.9646 97.3513C46.9646 97.3513 47.0024 96.421 46.0797 95.9823C46.0797 95.9823 45.6637 95.7554 44.9906 95.8688ZM44.3401 99.0228C44.5292 98.9169 44.4763 98.6371 44.4763 98.6371V96.194C44.4687 95.9218 44.3779 95.899 44.3779 95.899C44.3553 95.8159 44.0225 95.7932 44.0225 95.7932V95.6722H45.5956C47.5394 95.7932 47.5243 97.442 47.5243 97.442C47.4109 99.2951 45.573 99.2118 45.573 99.2118H44.0225V99.0832C44.2947 99.0832 44.3401 99.0228 44.3401 99.0228Z" fill="black"/>
<path d="M48.4909 95.8659C48.4909 95.7322 48.3825 95.6238 48.2489 95.6238C48.1152 95.6238 48.0068 95.7322 48.0068 95.8659C48.0068 95.9996 48.1152 96.1079 48.2489 96.1079C48.3825 96.1079 48.4909 95.9996 48.4909 95.8659Z" fill="black"/>
<path d="M47.7767 97.1117L48.3414 96.9151C48.3414 96.9151 48.4574 96.8344 48.4523 97.0134V98.9118C48.4523 98.9118 48.4422 99.0884 48.5985 99.0884H48.7902V99.2124H47.7061V99.0934H47.9229C47.9229 99.0934 48.054 99.0631 48.0439 98.9118V97.4849C48.0439 97.4849 48.0439 97.2781 47.7817 97.1924L47.7767 97.1117Z" fill="black"/>
<path d="M48.9767 97.147V97.2378C48.9767 97.2378 49.2843 97.3235 49.2641 97.5201V98.9269C49.2641 98.9269 49.2701 99.0782 49.1209 99.0832H48.9414V99.2124H50.0204V99.0883H49.8339C49.8339 99.0883 49.6776 99.0782 49.6776 98.9371V97.4193C49.6776 97.4193 50.0759 97.142 50.3331 97.1773C50.3331 97.1773 50.6961 97.1722 50.7415 97.5706V98.9169C50.7415 98.9169 50.7415 99.0832 50.5903 99.0883H50.3986V99.2124H51.4878V99.0832H51.3113C51.3113 99.0832 51.1499 99.1035 51.1449 98.9169V97.6008C51.1449 97.6008 51.1751 96.9394 50.6457 96.897C50.6457 96.897 50.2373 96.8041 49.6826 97.2731V96.8895C49.6826 96.8895 49.0422 97.1319 48.9767 97.147Z" fill="black"/>
<path d="M51.8967 97.6614H52.7791C52.7791 97.6614 52.9455 97.6664 52.9253 97.4849C52.9253 97.4849 52.895 97.0664 52.4614 97.0614C52.4614 97.0614 51.9622 97.0715 51.8967 97.6614ZM52.0883 98.7153C52.2849 98.9977 52.6127 98.9976 52.6127 98.9976C52.9808 99.0027 53.3136 98.6497 53.3136 98.6497L53.3842 98.7253C52.9102 99.3707 52.4242 99.2951 52.4242 99.2951C51.2879 99.2699 51.4882 97.9136 51.4882 97.9136C51.6647 96.8597 52.527 96.8896 52.527 96.8896C53.3791 96.9648 53.3589 97.7119 53.3589 97.7119C53.374 97.8228 53.253 97.8228 53.253 97.8228H51.8765C51.8361 98.438 52.0883 98.7153 52.0883 98.7153Z" fill="black"/>
<path d="M53.5907 97.1924V97.263C53.5907 97.263 53.8529 97.3538 53.8529 97.4647V98.9522C53.8529 98.9522 53.8429 99.0884 53.7218 99.0832H53.4697V99.2124H54.7807V99.0832H54.4076C54.4076 99.0832 54.2412 99.0984 54.2614 98.8867V97.7118C54.2614 97.7118 54.2412 97.4092 54.6042 97.3134C54.6042 97.3134 54.695 97.2781 54.8261 97.3941C54.8261 97.3941 55.1236 97.5504 55.2043 97.1924C55.2043 97.1924 55.2245 97.0008 55.0581 96.9302C55.0581 96.9302 54.8261 96.8143 54.6042 97.0109C54.6042 97.0109 54.4757 97.0903 54.2563 97.4193V96.9655C54.2563 96.9655 54.2563 96.837 54.1353 96.9239C54.1353 96.9239 53.6285 97.1773 53.5907 97.1924Z" fill="black"/>
<path d="M56.6463 97.5706H56.7673L56.737 97.0614C56.737 97.0614 56.2429 96.7437 55.7588 96.9807C55.7588 96.9807 55.3655 97.1471 55.3605 97.5706C55.3605 97.5706 55.3252 97.9337 55.7134 98.1455L56.1471 98.3522C56.1471 98.3522 56.5152 98.5085 56.4748 98.801C56.4748 98.801 56.4589 99.1338 56.0635 99.1338C56.0635 99.1338 55.547 99.154 55.4311 98.5236L55.3252 98.5439L55.3857 99.1338C55.3857 99.1338 55.7437 99.3207 56.0109 99.2979C56.0109 99.2979 56.8833 99.3354 56.8833 98.569C56.8833 98.569 56.9185 98.1909 56.4395 97.9942L55.9202 97.7472C55.9202 97.7472 55.6731 97.606 55.7084 97.3614C55.7084 97.3614 55.7437 97.0412 56.1521 97.0614C56.1521 97.0614 56.5958 97.0614 56.6463 97.5706Z" fill="black"/>
<path d="M61.3405 96.6021H61.4716L61.4313 95.8709C61.4313 95.8709 60.2111 95.2709 59.2631 95.8407C59.2631 95.8407 58.2798 96.2945 58.295 97.4139C58.295 97.4139 58.2093 98.4677 59.1572 99.0324C59.1572 99.0324 60.0598 99.6274 61.3607 99.0324L61.4716 98.2862L61.3607 98.256C61.3607 98.256 61.2163 99.0883 60.3472 99.1333C60.3472 99.1333 59.6716 99.1737 59.1774 98.4929C59.1774 98.4929 58.774 97.9988 58.8244 97.2727C58.8244 97.2727 58.8197 96.3683 59.4951 95.9819C59.4951 95.9819 59.8632 95.7298 60.3018 95.765C60.3018 95.765 61.2145 95.7146 61.3405 96.6021Z" fill="black"/>
<path d="M61.7238 95.619V95.6896C61.7238 95.6896 62.0011 95.7099 61.996 96.0023V98.9319C61.996 98.9319 61.9961 99.068 61.8599 99.0781H61.6582V99.2192H62.7423V99.0831H62.5507C62.5507 99.0831 62.3944 99.0932 62.3944 98.9067V95.4173C62.3944 95.4173 62.4095 95.2863 62.3137 95.3619C62.3137 95.3619 61.9607 95.5334 61.7238 95.619Z" fill="black"/>
<path d="M62.7422 97.0106L63.3523 96.9753C63.3523 96.9753 63.4733 96.935 63.4532 97.0812V98.4931C63.4532 98.4931 63.3976 99.0225 63.8868 99.0275C63.8868 99.0275 64.1086 99.0427 64.5171 98.7098V97.3333C64.5171 97.3333 64.4767 97.2173 64.0834 97.1417V97.056L64.8045 96.9904C64.8045 96.9904 64.9204 96.9249 64.9204 97.066V98.9166C64.9204 98.9166 64.8851 99.0378 65.0415 99.0277H65.2583V99.1334C65.2583 99.1334 64.6179 99.2488 64.5171 99.297L64.5019 99.2695V98.8864C64.5019 98.8864 63.9624 99.3598 63.5742 99.297C63.5742 99.297 63.0548 99.2998 63.0447 98.7048V97.3182C63.0447 97.3182 63.0347 97.1115 62.7422 97.1115V97.0106Z" fill="black"/>
<path d="M65.9234 97.4193V98.6194C65.9234 98.6194 65.956 99.1488 66.4427 99.1589C66.4427 99.1589 67.1622 99.2423 67.2193 98.1807C67.2193 98.1807 67.2041 97.2832 66.4176 97.1773C66.4176 97.1773 66.2058 97.1319 65.9234 97.4193ZM65.5553 99.2446L65.4444 99.1841C65.4444 99.1841 65.4999 98.9371 65.5251 98.3421V95.9722C65.5251 95.9722 65.5049 95.7201 65.2578 95.7049V95.5955C65.2578 95.5955 65.4999 95.5336 65.8326 95.3621C65.8326 95.3621 65.9234 95.2814 65.9284 95.4428V97.253C65.9284 97.253 66.5487 96.6378 67.1537 97.026C67.1537 97.026 67.6126 97.2781 67.6277 97.9488C67.6277 97.9488 67.6277 99.2189 66.4176 99.2973C66.4176 99.2973 65.9739 99.3052 65.7066 99.1136L65.5553 99.2446Z" fill="black"/>
<path d="M44 100.319H44.8622V100.42H44.7513C44.7513 100.42 44.6252 100.43 44.6252 100.556V102.018C44.6252 102.018 44.6051 102.154 44.7412 102.159H44.8622V102.27H44V102.164H44.121C44.121 102.164 44.232 102.159 44.242 102.023V100.546C44.242 100.546 44.2168 100.42 44.116 100.43H44V100.319Z" fill="black"/>
<path d="M58.8799 100.319H59.7421V100.42H59.6312C59.6312 100.42 59.5051 100.43 59.5051 100.556V102.018C59.5051 102.018 59.4849 102.154 59.6211 102.159H59.7421V102.27H58.8799V102.164H59.0009C59.0009 102.164 59.1118 102.159 59.1219 102.023V100.546C59.1219 100.546 59.0967 100.42 58.9958 100.43H58.8799V100.319Z" fill="black"/>
<path d="M44.9434 100.319H45.5182L46.7434 101.675V100.636C46.7434 100.636 46.7434 100.46 46.5821 100.435H46.446V100.319H47.1973V100.43H47.1014C47.1014 100.43 46.9351 100.409 46.9149 100.662V102.078C46.9149 102.078 46.8998 102.265 46.93 102.315H46.7989L45.3972 100.757V101.912C45.3972 101.912 45.372 102.154 45.5485 102.159H45.7047V102.27H44.9434V102.164H45.0543C45.0543 102.164 45.2106 102.159 45.2358 101.912V100.651C45.2358 100.651 45.2156 100.48 45.0543 100.435H44.9434V100.319Z" fill="black"/>
<path d="M52.9268 100.319H53.5016L54.7268 101.675V100.636C54.7268 100.636 54.7268 100.46 54.5655 100.435H54.4294V100.319H55.1807V100.43H55.0848C55.0848 100.43 54.9185 100.409 54.8983 100.662V102.078C54.8983 102.078 54.8831 102.265 54.9134 102.315H54.7823L53.3806 100.757V101.912C53.3806 101.912 53.3554 102.154 53.5318 102.159H53.6881V102.27H52.9268V102.164H53.0377C53.0377 102.164 53.194 102.159 53.2192 101.912V100.651C53.2192 100.651 53.199 100.48 53.0377 100.435H52.9268V100.319Z" fill="black"/>
<path d="M61.9453 100.319H62.5201L63.7454 101.675V100.636C63.7454 100.636 63.7454 100.46 63.584 100.435H63.4479V100.319H64.1992V100.43H64.1034C64.1034 100.43 63.937 100.409 63.9168 100.662V102.078C63.9168 102.078 63.9017 102.265 63.932 102.315H63.8009L62.3991 100.757V101.912C62.3991 101.912 62.3739 102.154 62.5504 102.159H62.7067V102.27H61.9453V102.164H62.0562C62.0562 102.164 62.2125 102.159 62.2378 101.912V100.651C62.2378 100.651 62.2175 100.48 62.0562 100.435H61.9453V100.319Z" fill="black"/>
<path d="M47.2928 100.238C47.2928 100.238 47.2877 100.525 47.2373 100.727H47.3533C47.3533 100.727 47.3432 100.465 47.56 100.482H48.034V101.922C48.034 101.922 48.0693 102.134 47.918 102.164H47.7517V102.27H48.6945V102.159H48.5685C48.5685 102.159 48.3971 102.164 48.4172 101.917V100.48H48.8609C48.8609 100.48 49.0374 100.445 49.0525 100.747L49.1584 100.707C49.1584 100.707 49.1635 100.475 49.1887 100.238C49.1887 100.238 49.1231 100.258 49.108 100.238C49.108 100.238 49.0828 100.314 49.0072 100.319H47.4793C47.4793 100.319 47.3936 100.314 47.3735 100.238H47.2928Z" fill="black"/>
<path d="M56.8982 100.238C56.8982 100.238 56.8932 100.525 56.8428 100.727H56.9587C56.9587 100.727 56.9487 100.465 57.1655 100.482H57.6394V101.922C57.6394 101.922 57.6747 102.134 57.5235 102.164H57.3571V102.27H58.3V102.159H58.1739C58.1739 102.159 58.0025 102.164 58.0227 101.917V100.48H58.4664C58.4664 100.48 58.6429 100.445 58.658 100.747L58.7639 100.707C58.7639 100.707 58.7689 100.475 58.7942 100.238C58.7942 100.238 58.7286 100.258 58.7135 100.238C58.7135 100.238 58.6882 100.314 58.6126 100.319H57.0848C57.0848 100.319 56.9991 100.314 56.9789 100.238H56.8982Z" fill="black"/>
<path d="M49.249 100.319H50.6659C50.6659 100.319 50.671 100.596 50.6911 100.757L50.5751 100.793C50.5751 100.793 50.5903 100.455 50.323 100.47H49.8843V101.161H50.2146C50.2146 101.161 50.3936 101.181 50.4087 100.929L50.5045 100.919C50.5045 100.919 50.4793 101.453 50.5096 101.574L50.4037 101.609C50.4037 101.609 50.4188 101.312 50.2146 101.317H49.8793V101.937C49.8793 101.937 49.849 102.119 50.0507 102.119H50.3785C50.3785 102.119 50.7012 102.129 50.7516 101.791L50.8575 101.816C50.8575 101.816 50.7718 102.169 50.7567 102.27H49.249V102.159H49.3751C49.3751 102.159 49.4961 102.164 49.5062 102.008V100.566C49.5062 100.566 49.491 100.425 49.3801 100.43H49.249V100.319Z" fill="black"/>
<path d="M51.5785 100.445V101.254H51.76C51.76 101.254 52.1281 101.254 52.113 100.849C52.113 100.849 52.1483 100.53 51.8206 100.445H51.5785ZM50.9482 100.319H51.8962C51.8962 100.319 52.5164 100.288 52.5164 100.783C52.5164 100.783 52.5719 101.161 52.1281 101.317L52.6223 102.033C52.6223 102.033 52.6576 102.154 52.8643 102.169V102.27H52.3197L51.755 101.378H51.5886V101.998C51.5886 101.998 51.5836 102.129 51.6996 102.159H51.8609V102.27H50.9482V102.159H51.0692C51.0692 102.159 51.1903 102.139 51.2003 102.018V100.571C51.2003 100.571 51.1751 100.435 51.0743 100.435H50.9482V100.319Z" fill="black"/>
<path d="M67.6806 100.401V100.533H67.7104C67.7104 100.533 67.7709 100.533 67.7684 100.467C67.7684 100.467 67.7742 100.415 67.7203 100.401H67.6806ZM67.5771 100.38H67.7328C67.7328 100.38 67.8346 100.375 67.8346 100.456C67.8346 100.456 67.8437 100.518 67.7709 100.544L67.852 100.661C67.852 100.661 67.8578 100.681 67.8917 100.684V100.7H67.8024L67.7096 100.554H67.6823V100.656C67.6823 100.656 67.6815 100.677 67.7005 100.682H67.727V100.7H67.5771V100.682H67.597C67.597 100.682 67.6169 100.679 67.6186 100.659V100.421C67.6186 100.421 67.6144 100.399 67.5978 100.399H67.5771V100.38Z" fill="black"/>
<path d="M55.7689 101.408H56.248L56.0085 100.677L55.7689 101.408ZM55.1387 102.27V102.169H55.205C55.205 102.169 55.3252 102.154 55.3908 102.003L55.9505 100.379L56.1723 100.273C56.1723 100.273 56.2581 100.212 56.2782 100.318L56.8839 102.043C56.8839 102.043 56.9236 102.169 57.0951 102.169V102.27H56.2732V102.164H56.369C56.369 102.164 56.495 102.154 56.4799 102.053L56.3186 101.594H55.7084L55.5723 102.023C55.5723 102.023 55.5118 102.149 55.658 102.154H55.7891V102.27H55.1387Z" fill="black"/>
<path d="M64.8022 101.408H65.2812L65.0417 100.677L64.8022 101.408ZM64.1719 102.27V102.169H64.2382C64.2382 102.169 64.3584 102.154 64.424 102.003L64.9837 100.379L65.2055 100.273C65.2055 100.273 65.2913 100.212 65.3114 100.318L65.9171 102.043C65.9171 102.043 65.9569 102.169 66.1283 102.169V102.27H65.3064V102.164H65.4022C65.4022 102.164 65.5282 102.154 65.5131 102.053L65.3518 101.594H64.7417L64.6055 102.023C64.6055 102.023 64.545 102.149 64.6912 102.154H64.8224V102.27H64.1719Z" fill="black"/>
<path d="M60.216 101.206C60.226 102.189 60.8967 102.174 60.8967 102.174C61.5925 102.139 61.4916 101.254 61.4916 101.254C61.4489 100.428 60.8109 100.414 60.8109 100.414C60.1605 100.475 60.216 101.206 60.216 101.206ZM60.8577 102.315C60.2729 102.315 59.7988 101.859 59.7988 101.297C59.7988 100.734 60.2729 100.278 60.8577 100.278C61.4425 100.278 61.9166 100.734 61.9166 101.297C61.9166 101.859 61.4425 102.315 60.8577 102.315Z" fill="black"/>
<path d="M66.1914 100.319H67.0688V100.42H66.9629C66.9629 100.42 66.8015 100.404 66.8167 100.551V101.967C66.8167 101.967 66.7864 102.109 66.9528 102.124C66.9528 102.124 67.6033 102.27 67.6739 101.781H67.7797L67.6789 102.27H66.1914V102.169H66.2923C66.2923 102.169 66.4132 102.174 66.4435 102.013V100.576C66.4435 100.576 66.4335 100.445 66.3175 100.435H66.1914V100.319Z" fill="black"/>
<path d="M67.9995 100.54C67.9995 100.392 67.8794 100.272 67.7312 100.272C67.583 100.272 67.4629 100.392 67.4629 100.54C67.4629 100.688 67.583 100.808 67.7312 100.808C67.8794 100.808 67.9995 100.688 67.9995 100.54Z" stroke="black" stroke-width="0.02" stroke-miterlimit="10"/>
<path d="M99.9697 97.3374V91.6025C99.9697 90.5473 100.852 89.6919 101.94 89.6919L103.685 89.6944C104.77 89.6965 105.648 90.5501 105.648 91.6022V92.8229C105.648 93.8781 104.766 94.7336 103.678 94.7336H101.212" stroke="#939598" stroke-width="0.3" stroke-miterlimit="22.9256" stroke-linecap="round" stroke-linejoin="round"/>
<path d="M106.136 89.6911H106.893C107.34 89.6911 107.701 90.0422 107.701 90.4752V94.7593" stroke="#939598" stroke-width="0.3" stroke-miterlimit="22.9256" stroke-linecap="round" stroke-linejoin="round"/>
<path d="M107.539 89.0273L107.196 88.6942C107.111 88.6116 107.111 88.4776 107.196 88.3949L107.539 88.0621C107.624 87.9793 107.763 87.9793 107.848 88.0621L108.191 88.3949C108.276 88.4776 108.276 88.6116 108.191 88.6942L107.848 89.0273C107.763 89.11 107.624 89.11 107.539 89.0273Z" fill="#32BCAD"/>
<path d="M109.154 89.6871H109.905C110.292 89.6871 110.662 89.8359 110.935 90.1009L112.692 91.8046C112.919 92.0254 113.288 92.0254 113.516 91.8046L115.266 90.1071C115.539 89.8422 115.91 89.6933 116.296 89.6933L116.907 89.6934" stroke="#939598" stroke-width="0.3" stroke-miterlimit="22.9256" stroke-linecap="round" stroke-linejoin="round"/>
<path d="M109.154 94.7217H109.905C110.292 94.7217 110.662 94.5729 110.935 94.3079L112.692 92.6041C112.919 92.3834 113.288 92.3834 113.516 92.6041L115.266 94.3016C115.539 94.5666 115.91 94.7154 116.296 94.7154H116.907" stroke="#939598" stroke-width="0.3" stroke-miterlimit="22.9256" stroke-linecap="round" stroke-linejoin="round"/>
<path d="M95.4919 95.8102C95.1149 95.8102 94.7605 95.6678 94.494 95.4094L93.053 94.0118C92.9519 93.9134 92.7755 93.9137 92.6744 94.0118L91.2282 95.4145C90.9616 95.6729 90.6071 95.8152 90.2302 95.8152H89.9463L91.7712 97.5854C92.3412 98.1382 93.2653 98.1382 93.8353 97.5854L95.6655 95.8102H95.4919Z" fill="#32BCAD"/>
<path d="M90.2302 90.8664C90.6071 90.8664 90.9616 91.0088 91.2281 91.2672L92.6743 92.6702C92.7785 92.7712 92.9485 92.7716 93.053 92.67L94.4939 91.2723C94.7604 91.0139 95.1149 90.8715 95.4919 90.8715H95.6654L93.8352 89.0964C93.2653 88.5435 92.3412 88.5435 91.7712 89.0964L89.9463 90.8664H90.2302Z" fill="#32BCAD"/>
<path d="M97.1795 92.34L96.0735 91.2673C96.0492 91.2767 96.0228 91.2826 95.995 91.2826H95.4922C95.2322 91.2826 94.9777 91.3849 94.794 91.5632L93.353 92.9608C93.2183 93.0916 93.0411 93.1571 92.864 93.1571C92.6869 93.1571 92.5098 93.0916 92.375 92.961L90.9286 91.5581C90.7449 91.3798 90.4905 91.2775 90.2305 91.2775H89.6122C89.5858 91.2775 89.5612 91.2715 89.5379 91.263L88.4275 92.34C87.8575 92.8928 87.8575 93.7891 88.4275 94.342L89.5378 95.4189C89.5611 95.4105 89.5858 95.4044 89.6121 95.4044H90.2305C90.4905 95.4044 90.7449 95.3022 90.9286 95.1239L92.3749 93.7211C92.6363 93.4678 93.0919 93.4677 93.353 93.7212L94.794 95.1187C94.9777 95.2971 95.2322 95.3993 95.4922 95.3993H95.995C96.0228 95.3993 96.0492 95.4052 96.0736 95.4147L97.1795 94.342C97.7495 93.7891 97.7495 92.8928 97.1795 92.34Z" fill="#32BCAD"/>
<path d="M101.471 96.85C101.39 96.85 101.295 96.869 101.201 96.89V97.2396C101.266 97.2626 101.34 97.2737 101.411 97.2737C101.592 97.2737 101.678 97.2146 101.678 97.0603C101.678 96.9151 101.607 96.85 101.471 96.85ZM101.14 97.499V96.8079H101.189L101.194 96.838C101.278 96.8189 101.394 96.7939 101.476 96.7939C101.543 96.7939 101.607 96.8038 101.661 96.8459C101.723 96.8951 101.743 96.9741 101.743 97.0602C101.743 97.1505 101.712 97.2356 101.627 97.2826C101.568 97.3147 101.489 97.3277 101.417 97.3277C101.344 97.3277 101.274 97.3166 101.201 97.2956V97.499H101.14Z" fill="#939598"/>
<path d="M102.196 96.8479C102.015 96.8479 101.934 96.903 101.934 97.0572C101.934 97.2065 102.014 97.2736 102.196 97.2736C102.375 97.2736 102.456 97.2195 102.456 97.0652C102.456 96.916 102.376 96.8479 102.196 96.8479ZM102.428 97.2736C102.368 97.3156 102.287 97.3276 102.196 97.3276C102.102 97.3276 102.021 97.3146 101.962 97.2736C101.896 97.2286 101.869 97.1543 101.869 97.0613C101.869 96.9691 101.896 96.894 101.962 96.8479C102.021 96.8068 102.102 96.7939 102.196 96.7939C102.288 96.7939 102.368 96.8068 102.428 96.8479C102.495 96.894 102.521 96.9691 102.521 97.0602C102.521 97.1534 102.494 97.2286 102.428 97.2736V97.2736Z" fill="#939598"/>
<path d="M103.284 97.3135L103.082 96.8939H103.078L102.88 97.3135H102.825L102.61 96.8077H102.677L102.856 97.2323H102.86L103.054 96.8077H103.11L103.309 97.2323H103.314L103.488 96.8077H103.553L103.338 97.3135H103.284Z" fill="#939598"/>
<path d="M103.943 96.8468C103.776 96.8468 103.719 96.9189 103.709 97.0231H104.177C104.172 96.908 104.111 96.8468 103.943 96.8468ZM103.941 97.3276C103.841 97.3276 103.776 97.3136 103.724 97.2714C103.663 97.2204 103.643 97.1463 103.643 97.0612C103.643 96.9801 103.67 96.894 103.74 96.8449C103.798 96.8058 103.869 96.7938 103.943 96.7938C104.01 96.7938 104.088 96.8008 104.152 96.8429C104.227 96.8919 104.242 96.9781 104.242 97.0762H103.707C103.709 97.1804 103.744 97.2726 103.946 97.2726C104.042 97.2726 104.132 97.2575 104.216 97.2435V97.2966C104.129 97.3116 104.033 97.3276 103.941 97.3276Z" fill="#939598"/>
<path d="M104.416 97.3135V96.8077H104.466L104.471 96.8378C104.581 96.8107 104.633 96.7937 104.73 96.7937H104.737V96.8498H104.723C104.641 96.8498 104.592 96.8607 104.477 96.8898V97.3135H104.416Z" fill="#939598"/>
<path d="M105.091 96.8468C104.923 96.8468 104.866 96.9189 104.856 97.0231H105.325C105.32 96.908 105.259 96.8468 105.091 96.8468ZM105.088 97.3276C104.988 97.3276 104.923 97.3136 104.872 97.2714C104.811 97.2204 104.79 97.1463 104.79 97.0612C104.79 96.9801 104.818 96.894 104.887 96.8449C104.945 96.8058 105.016 96.7938 105.091 96.7938C105.158 96.7938 105.235 96.8008 105.299 96.8429C105.374 96.8919 105.389 96.9781 105.389 97.0762H104.854C104.856 97.1804 104.891 97.2726 105.094 97.2726C105.19 97.2726 105.279 97.2575 105.363 97.2435V97.2966C105.276 97.3116 105.18 97.3276 105.088 97.3276Z" fill="#939598"/>
<path d="M106.057 96.882C105.992 96.8589 105.917 96.8479 105.846 96.8479C105.665 96.8479 105.58 96.907 105.58 97.0613C105.58 97.2074 105.65 97.2715 105.786 97.2715C105.868 97.2715 105.963 97.2525 106.057 97.2325V96.882ZM106.068 97.3137L106.063 97.2835C105.979 97.3026 105.864 97.3276 105.781 97.3276C105.714 97.3276 105.65 97.3187 105.596 97.2755C105.534 97.2264 105.515 97.1474 105.515 97.0613C105.515 96.9711 105.546 96.8859 105.63 96.8398C105.689 96.8068 105.769 96.7939 105.841 96.7939C105.913 96.7939 105.983 96.8059 106.057 96.8259V96.5945H106.118V97.3137H106.068Z" fill="#939598"/>
<path d="M107.011 96.85C106.93 96.85 106.835 96.869 106.741 96.89V97.2385C106.807 97.2626 106.88 97.2736 106.951 97.2736C107.132 97.2736 107.218 97.2145 107.218 97.0602C107.218 96.915 107.148 96.85 107.011 96.85ZM107.167 97.2826C107.108 97.3146 107.029 97.3276 106.957 97.3276C106.88 97.3276 106.803 97.3146 106.724 97.2895L106.721 97.3137H106.68V96.5946H106.741V96.8358C106.824 96.8179 106.937 96.7939 107.016 96.7939C107.083 96.7939 107.148 96.8038 107.201 96.8459C107.263 96.895 107.283 96.9741 107.283 97.0602C107.283 97.1504 107.252 97.2356 107.167 97.2826Z" fill="#939598"/>
<path d="M107.364 97.5077V97.4527C107.394 97.4556 107.422 97.4577 107.441 97.4577C107.517 97.4577 107.562 97.4366 107.605 97.3534L107.624 97.3134L107.352 96.8076H107.422L107.655 97.2443H107.659L107.881 96.8076L107.95 96.8076L107.657 97.3755C107.604 97.4787 107.546 97.5127 107.439 97.5127C107.416 97.5127 107.39 97.5107 107.364 97.5077Z" fill="#939598"/>
<path d="M108.79 97.025H108.588V97.2023H108.791C108.93 97.2023 108.983 97.1872 108.983 97.1132C108.983 97.0339 108.911 97.025 108.79 97.025ZM108.753 96.7375H108.588V96.9178H108.754C108.891 96.9178 108.946 96.9018 108.946 96.8267C108.946 96.7466 108.877 96.7375 108.753 96.7375L108.753 96.7375ZM109.067 97.2654C108.992 97.3115 108.903 97.3135 108.738 97.3135H108.43V96.6274H108.731C108.873 96.6274 108.959 96.6294 109.032 96.6715C109.083 96.7016 109.104 96.7476 109.104 96.8077C109.104 96.8798 109.073 96.9278 108.992 96.9599V96.9638C109.083 96.984 109.142 97.0291 109.142 97.1262C109.142 97.1923 109.117 97.2354 109.067 97.2654Z" fill="#939598"/>
<path d="M109.76 97.1013C109.699 97.0963 109.637 97.0933 109.572 97.0933C109.466 97.0933 109.428 97.1143 109.428 97.1614C109.428 97.2054 109.459 97.2295 109.541 97.2295C109.609 97.2295 109.691 97.2145 109.76 97.1994V97.1013ZM109.791 97.3137L109.787 97.2835C109.698 97.3047 109.595 97.3276 109.504 97.3276C109.448 97.3276 109.388 97.3206 109.346 97.2905C109.307 97.2635 109.288 97.2194 109.288 97.1683C109.288 97.1112 109.314 97.0582 109.376 97.0312C109.431 97.0061 109.504 97.0041 109.571 97.0041C109.626 97.0041 109.699 97.0071 109.76 97.0112V97.0021C109.76 96.923 109.706 96.897 109.56 96.897C109.503 96.897 109.434 96.8999 109.368 96.9059V96.8038C109.441 96.7979 109.523 96.7938 109.592 96.7938C109.683 96.7938 109.777 96.8008 109.834 96.8408C109.894 96.882 109.906 96.9391 109.906 97.0141V97.3136L109.791 97.3137Z" fill="#939598"/>
<path d="M110.586 97.3135V97.0339C110.586 96.9419 110.538 96.9089 110.451 96.9089C110.387 96.9089 110.307 96.9248 110.238 96.9409V97.3135H110.093V96.8077H110.212L110.217 96.8397C110.309 96.8167 110.411 96.7937 110.495 96.7937C110.559 96.7937 110.625 96.8026 110.674 96.8457C110.715 96.8818 110.731 96.9318 110.731 97.004V97.3135H110.586Z" fill="#939598"/>
<path d="M111.142 97.3276C111.075 97.3276 111.001 97.3187 110.948 97.2745C110.884 97.2244 110.865 97.1454 110.865 97.0601C110.865 96.9801 110.892 96.8929 110.972 96.8439C111.037 96.8028 111.117 96.7938 111.201 96.7938C111.261 96.7938 111.32 96.7978 111.385 96.8038V96.912C111.332 96.907 111.269 96.903 111.218 96.903C111.08 96.903 111.015 96.9451 111.015 97.0613C111.015 97.1704 111.063 97.2175 111.177 97.2175C111.243 97.2175 111.321 97.2054 111.396 97.1915V97.2956C111.314 97.3117 111.226 97.3276 111.142 97.3276Z" fill="#939598"/>
<path d="M111.826 96.8999C111.687 96.8999 111.626 96.9421 111.626 97.0572C111.626 97.1724 111.686 97.2215 111.826 97.2215C111.963 97.2215 112.023 97.1804 112.023 97.0651C112.023 96.95 111.964 96.8999 111.826 96.8999ZM112.076 97.2746C112.012 97.3166 111.928 97.3276 111.826 97.3276C111.721 97.3276 111.638 97.3155 111.575 97.2745C111.502 97.2285 111.477 97.1524 111.477 97.0612C111.477 96.97 111.502 96.8929 111.575 96.8468C111.638 96.8058 111.721 96.7938 111.826 96.7938C111.929 96.7938 112.012 96.8058 112.076 96.8468C112.148 96.8929 112.173 96.97 112.173 97.0601C112.173 97.1514 112.147 97.2285 112.076 97.2745V97.2746Z" fill="#939598"/>
<path d="M113.014 97.3276C112.926 97.3276 112.831 97.3137 112.76 97.2565C112.675 97.1884 112.649 97.0833 112.649 96.9701C112.649 96.8689 112.682 96.7488 112.793 96.6786C112.879 96.6246 112.985 96.6135 113.092 96.6135C113.171 96.6135 113.251 96.6185 113.339 96.6256V96.7488C113.264 96.7427 113.171 96.7377 113.099 96.7377C112.897 96.7377 112.811 96.8119 112.811 96.9701C112.811 97.1314 112.891 97.2035 113.04 97.2035C113.137 97.2035 113.245 97.1844 113.355 97.1624V97.2846C113.245 97.3056 113.13 97.3276 113.014 97.3276Z" fill="#939598"/>
<path d="M113.782 96.8839C113.662 96.8839 113.615 96.9261 113.606 97.0032H113.957C113.953 96.921 113.903 96.8839 113.782 96.8839ZM113.761 97.3276C113.675 97.3276 113.598 97.3177 113.54 97.2715C113.478 97.2215 113.456 97.1464 113.456 97.0601C113.456 96.9831 113.482 96.897 113.554 96.8468C113.618 96.8028 113.7 96.7938 113.782 96.7938C113.857 96.7938 113.945 96.8018 114.009 96.8449C114.092 96.902 114.099 96.9901 114.1 97.0943L113.605 97.0943C113.608 97.1714 113.65 97.2215 113.797 97.2215C113.888 97.2215 113.989 97.2085 114.075 97.1954V97.2946C113.974 97.3107 113.865 97.3276 113.761 97.3276Z" fill="#939598"/>
<path d="M114.749 97.3135V97.0339C114.749 96.9419 114.7 96.9089 114.613 96.9089C114.549 96.9089 114.469 96.9248 114.401 96.9409V97.3135H114.255V96.8077H114.374L114.379 96.8397C114.471 96.8167 114.573 96.7937 114.658 96.7937C114.722 96.7937 114.787 96.8026 114.836 96.8457C114.878 96.8818 114.893 96.9318 114.893 97.004V97.3135H114.749Z" fill="#939598"/>
<path d="M115.307 97.3276C115.237 97.3276 115.173 97.3085 115.138 97.2555C115.112 97.2194 115.099 97.1704 115.099 97.1023V96.9129H114.994V96.8078H115.099L115.115 96.6546H115.244V96.8078H115.45V96.9129H115.244V97.0753C115.244 97.1143 115.247 97.1474 115.259 97.1714C115.274 97.2054 115.308 97.2185 115.354 97.2185C115.388 97.2185 115.429 97.2134 115.458 97.2085V97.3096C115.41 97.3187 115.356 97.3276 115.307 97.3276Z" fill="#939598"/>
<path d="M115.592 97.3135V96.8077H115.711L115.716 96.8397C115.812 96.8137 115.883 96.7937 115.974 96.7937C115.978 96.7937 115.984 96.7937 115.993 96.7946V96.9148C115.976 96.9139 115.956 96.9139 115.942 96.9139C115.871 96.9139 115.817 96.9219 115.737 96.9399V97.3135H115.592Z" fill="#939598"/>
<path d="M116.522 97.1013C116.461 97.0963 116.399 97.0933 116.334 97.0933C116.227 97.0933 116.19 97.1143 116.19 97.1614C116.19 97.2054 116.221 97.2295 116.303 97.2295C116.371 97.2295 116.453 97.2145 116.522 97.1994V97.1013ZM116.553 97.3137L116.549 97.2835C116.46 97.3047 116.356 97.3276 116.266 97.3276C116.21 97.3276 116.15 97.3206 116.108 97.2905C116.068 97.2635 116.05 97.2194 116.05 97.1683C116.05 97.1112 116.076 97.0582 116.138 97.0312C116.192 97.0061 116.266 97.0041 116.333 97.0041C116.387 97.0041 116.461 97.0071 116.522 97.0112V97.0021C116.522 96.923 116.468 96.897 116.321 96.897C116.265 96.897 116.195 96.8999 116.129 96.9059V96.8038C116.203 96.7979 116.285 96.7938 116.353 96.7938C116.444 96.7938 116.538 96.8008 116.596 96.8408C116.656 96.882 116.667 96.9391 116.667 97.0141V97.3136L116.553 97.3137Z" fill="#939598"/>
<path d="M116.854 96.5944H117V97.3135H116.854V96.5944Z" fill="#939598"/>
<defs>
<radialGradient id="paint0_radial_16_1166" cx="0" cy="0" r="1" gradientUnits="userSpaceOnUse" gradientTransform="translate(98.7378 4.19275) scale(22.3886 22.4403)">
<stop stop-color="#9DD5F6"/>
<stop offset="0.071106" stop-color="#98D3F5"/>
<stop offset="0.157501" stop-color="#89CEF3"/>
<stop offset="0.251602" stop-color="#70C6EF"/>
<stop offset="0.351395" stop-color="#4EBBEA"/>
<stop offset="0.454605" stop-color="#23ADE3"/>
<stop offset="0.5" stop-color="#0DA6E0"/>
<stop offset="1" stop-color="#2E77BC"/>
</radialGradient>
<linearGradient id="paint1_linear_16_1166" x1="16.0904" y1="94.2708" x2="22.6826" y2="94.2708" gradientUnits="userSpaceOnUse">
<stop stop-color="#007940"/>
<stop offset="0.2285" stop-color="#00873F"/>
<stop offset="0.7433" stop-color="#40A737"/>
<stop offset="1" stop-color="#5CB531"/>
</linearGradient>
<linearGradient id="paint2_linear_16_1166" x1="16.0901" y1="93.2431" x2="22.6829" y2="93.2431" gradientUnits="userSpaceOnUse">
<stop stop-color="#007940"/>
<stop offset="0.2285" stop-color="#00873F"/>
<stop offset="0.7433" stop-color="#40A737"/>
<stop offset="1" stop-color="#5CB531"/>
</linearGradient>
<linearGradient id="paint3_linear_16_1166" x1="16.0902" y1="92.1251" x2="22.6827" y2="92.1251" gradientUnits="userSpaceOnUse">
<stop stop-color="#007940"/>
<stop offset="0.2285" stop-color="#00873F"/>
<stop offset="0.7433" stop-color="#40A737"/>
<stop offset="1" stop-color="#5CB531"/>
</linearGradient>
<linearGradient id="paint4_linear_16_1166" x1="1.33188" y1="93.2431" x2="8.02621" y2="93.2431" gradientUnits="userSpaceOnUse">
<stop stop-color="#1F286F"/>
<stop offset="0.4751" stop-color="#004E94"/>
<stop offset="0.8261" stop-color="#0066B1"/>
<stop offset="1" stop-color="#006FBC"/>
</linearGradient>
<linearGradient id="paint5_linear_16_1166" x1="8.67594" y1="93.2431" x2="15.1777" y2="93.2431" gradientUnits="userSpaceOnUse">
<stop stop-color="#6C2C2F"/>
<stop offset="0.1735" stop-color="#882730"/>
<stop offset="0.5731" stop-color="#BE1833"/>
<stop offset="0.8585" stop-color="#DC0436"/>
<stop offset="1" stop-color="#E60039"/>
</linearGradient>
</defs>
</svg>
