<svg width="93" height="94" viewBox="0 0 93 94" fill="none" xmlns="http://www.w3.org/2000/svg">
<path d="M46.34 93.4852C71.9356 93.4852 92.68 72.7408 92.68 47.1452C92.68 21.5496 71.9356 0.805176 46.34 0.805176C20.7444 0.805176 0 21.5496 0 47.1452C0 72.7408 20.7444 93.4852 46.34 93.4852ZM66.7948 38.6374L43.6248 61.8074C41.9232 63.509 39.1718 63.509 37.4883 61.8074L25.9033 50.2224C24.2018 48.5209 24.2018 45.7695 25.9033 44.086C27.6049 42.4026 30.3563 42.3845 32.0398 44.086L40.5475 52.5937L60.6402 32.4829C62.3418 30.7814 65.0932 30.7814 66.7767 32.4829C68.4601 34.1845 68.4782 36.9359 66.7767 38.6193L66.7948 38.6374Z" fill="#28C76F"/>
</svg>
