<svg width="11" height="12" viewBox="0 0 11 12" fill="none" xmlns="http://www.w3.org/2000/svg">
<path fill-rule="evenodd" clip-rule="evenodd" d="M5.40627 11.5C8.15436 11.5 10.3619 9.05 10.3619 6C10.3619 2.95 8.15436 0.5 5.40627 0.5C2.65817 0.5 0.450684 2.95 0.450684 6C0.450684 9.05 2.65817 11.5 5.40627 11.5ZM5.49637 6.95C5.67657 6.9 7.16325 6.3 7.16325 5C7.16325 4.15 6.66769 3.4 5.94688 3.15C5.00081 2.75 3.96464 3.3 3.64929 4.35C3.60424 4.6 3.69434 4.9 3.91959 4.9C4.14485 5 4.41515 4.85 4.50525 4.6C4.68545 4.1 5.22606 3.8 5.67657 4C6.03698 4.15 6.26223 4.5 6.26223 4.95C6.26223 5.5 5.49637 5.9 5.22606 6C5.00081 6.1 4.86566 6.4 4.95576 6.65C5.00081 6.85 5.18101 7 5.36122 7C5.40627 7 5.45132 7 5.49637 6.95ZM9.46084 6C9.46084 3.5 7.65881 1.5 5.40627 1.5C3.15373 1.5 1.3517 3.5 1.3517 6C1.3517 8.5 3.15373 10.5 5.40627 10.5C7.65881 10.5 9.46084 8.5 9.46084 6ZM5.63152 8.1C5.67657 8.1 5.72162 8.15 5.72162 8.15C5.76667 8.2 5.81172 8.25 5.76667 8.3C5.81172 8.35 5.81172 8.45 5.81172 8.5C5.81172 8.65 5.76667 8.75 5.67657 8.85C5.58647 8.95 5.49637 9 5.36122 9C5.22606 9 5.13596 8.95 5.04586 8.85C4.95576 8.75 4.91071 8.65 4.91071 8.5C4.91071 8.44142 4.92617 8.4 4.93897 8.36569C4.94803 8.34142 4.95576 8.32071 4.95576 8.3C4.95576 8.25 5.00081 8.2 5.04586 8.15C5.09091 8.1 5.13596 8.05 5.18101 8.05C5.27111 8 5.36122 8 5.45132 8C5.47769 8.02927 5.48862 8.0414 5.50219 8.04644C5.5118 8.05 5.52274 8.05 5.54142 8.05C5.56394 8.05 5.57521 8.0625 5.58647 8.075C5.59773 8.0875 5.609 8.1 5.63152 8.1Z" fill="black"/>
<mask id="mask0_1_13647" style="mask-type:luminance" maskUnits="userSpaceOnUse" x="0" y="0" width="11" height="12">
<path fill-rule="evenodd" clip-rule="evenodd" d="M5.40627 11.5C8.15436 11.5 10.3619 9.05 10.3619 6C10.3619 2.95 8.15436 0.5 5.40627 0.5C2.65817 0.5 0.450684 2.95 0.450684 6C0.450684 9.05 2.65817 11.5 5.40627 11.5ZM5.49637 6.95C5.67657 6.9 7.16325 6.3 7.16325 5C7.16325 4.15 6.66769 3.4 5.94688 3.15C5.00081 2.75 3.96464 3.3 3.64929 4.35C3.60424 4.6 3.69434 4.9 3.91959 4.9C4.14485 5 4.41515 4.85 4.50525 4.6C4.68545 4.1 5.22606 3.8 5.67657 4C6.03698 4.15 6.26223 4.5 6.26223 4.95C6.26223 5.5 5.49637 5.9 5.22606 6C5.00081 6.1 4.86566 6.4 4.95576 6.65C5.00081 6.85 5.18101 7 5.36122 7C5.40627 7 5.45132 7 5.49637 6.95ZM9.46084 6C9.46084 3.5 7.65881 1.5 5.40627 1.5C3.15373 1.5 1.3517 3.5 1.3517 6C1.3517 8.5 3.15373 10.5 5.40627 10.5C7.65881 10.5 9.46084 8.5 9.46084 6ZM5.63152 8.1C5.67657 8.1 5.72162 8.15 5.72162 8.15C5.76667 8.2 5.81172 8.25 5.76667 8.3C5.81172 8.35 5.81172 8.45 5.81172 8.5C5.81172 8.65 5.76667 8.75 5.67657 8.85C5.58647 8.95 5.49637 9 5.36122 9C5.22606 9 5.13596 8.95 5.04586 8.85C4.95576 8.75 4.91071 8.65 4.91071 8.5C4.91071 8.44142 4.92617 8.4 4.93897 8.36569C4.94803 8.34142 4.95576 8.32071 4.95576 8.3C4.95576 8.25 5.00081 8.2 5.04586 8.15C5.09091 8.1 5.13596 8.05 5.18101 8.05C5.27111 8 5.36122 8 5.45132 8C5.47769 8.02927 5.48862 8.0414 5.50219 8.04644C5.5118 8.05 5.52274 8.05 5.54142 8.05C5.56394 8.05 5.57521 8.0625 5.58647 8.075C5.59773 8.0875 5.609 8.1 5.63152 8.1Z" fill="white"/>
</mask>
<g mask="url(#mask0_1_13647)">
<rect width="10.8122" height="12" fill="#7367F0"/>
</g>
</svg>
