<svg width="12" height="12" viewBox="0 0 12 12" fill="none" xmlns="http://www.w3.org/2000/svg">
<path fill-rule="evenodd" clip-rule="evenodd" d="M11.6821 2.06653C11.3696 1.26214 10.7332 0.626081 9.92759 0.315369C9.46179 0.140386 8.96935 0.0465735 8.4709 0.0359281C7.82919 0.00798403 7.62594 0 5.99867 0C4.37139 0 4.16282 0 3.52643 0.0359281C3.02932 0.0459082 2.53687 0.139721 2.07108 0.315369C1.26477 0.626081 0.628387 1.26214 0.316526 2.06653C0.141271 2.53227 0.0473123 3.02329 0.0373167 3.52096C0.00866282 4.16101 0 4.36394 0 5.98935C0 7.61411 0 7.82102 0.0373167 8.45775C0.0473123 8.95542 0.141271 9.44644 0.316526 9.91284C0.629054 10.7166 1.26544 11.3526 2.07175 11.664C2.53554 11.845 3.02799 11.9474 3.52777 11.9634C4.16948 11.9914 4.37272 12 6 12C7.62728 12 7.83585 12 8.47223 11.9634C8.97001 11.9534 9.46246 11.8589 9.92892 11.6846C10.7346 11.3726 11.3709 10.7372 11.6835 9.9328C11.8587 9.46707 11.9527 8.97605 11.9627 8.47838C11.9913 7.83832 12 7.6354 12 6.00998C12 4.38456 12 4.17831 11.9627 3.54158C11.954 3.03726 11.8607 2.53759 11.6821 2.06653ZM10.8705 8.40852C10.8658 8.79175 10.7965 9.17166 10.6633 9.5316C10.46 10.0552 10.0462 10.4691 9.52243 10.67C9.16593 10.8024 8.79009 10.8716 8.4096 10.8769C7.77654 10.9062 7.59796 10.9135 5.97468 10.9135C4.35007 10.9135 4.18414 10.9135 3.53909 10.8769C3.15993 10.8723 2.78276 10.8024 2.42692 10.67C1.90115 10.4697 1.48467 10.0559 1.28143 9.5316C1.15082 9.17631 1.08019 8.8004 1.07419 8.42116C1.04554 7.78909 1.03887 7.61078 1.03887 5.99002C1.03887 4.3686 1.03887 4.20293 1.07419 3.55822C1.07885 3.17498 1.14816 2.79574 1.28143 2.4358C1.48467 1.91085 1.90115 1.49767 2.42692 1.29674C2.78276 1.165 3.15993 1.09514 3.53909 1.08982C4.17281 1.06121 4.35073 1.05323 5.97468 1.05323C7.59862 1.05323 7.76522 1.05323 8.4096 1.08982C8.79009 1.09448 9.16593 1.16434 9.52243 1.29674C10.0462 1.49834 10.46 1.91218 10.6633 2.4358C10.7939 2.79108 10.8645 3.167 10.8705 3.54624C10.8992 4.17898 10.9065 4.35662 10.9065 5.97804C10.9065 7.5988 10.9065 7.77312 10.8778 8.40918H10.8705V8.40852ZM10 2.75C10 3.16421 9.66421 3.5 9.25 3.5C8.83579 3.5 8.5 3.16421 8.5 2.75C8.5 2.33579 8.83579 2 9.25 2C9.66421 2 10 2.33579 10 2.75ZM3 5.99968C3 4.34314 4.34263 3 6 3C7.65607 3 9 4.34314 9 5.99968C9 7.65686 7.65607 9 6 9C4.34263 9 3 7.65686 3 5.99968ZM4.05062 6.00032C4.05062 7.07613 4.92343 7.94885 6 7.94885C7.07657 7.94885 7.94809 7.07613 7.94809 6.00032C7.94809 4.92387 7.07657 4.0518 6 4.0518C4.92343 4.0518 4.05062 4.92387 4.05062 6.00032Z" fill="#5E5873"/>
</svg>
