<svg width="12" height="12" viewBox="0 0 12 12" fill="none" xmlns="http://www.w3.org/2000/svg">
<path fill-rule="evenodd" clip-rule="evenodd" d="M1.88385 3.28234C2.64705 3.28234 3.26574 2.66365 3.26574 1.90045C3.26574 1.13725 2.64705 0.518555 1.88385 0.518555C1.12065 0.518555 0.501953 1.13725 0.501953 1.90045C0.501953 2.66365 1.12065 3.28234 1.88385 3.28234ZM4.57058 4.3295V11.9962H6.95101V8.20487C6.95101 7.20445 7.13922 6.23561 8.37964 6.23561C9.60301 6.23561 9.61816 7.3794 9.61816 8.26803V11.9969H11.9998V7.79245C11.9998 5.72719 11.5552 4.14003 9.14132 4.14003C7.98237 4.14003 7.20553 4.77603 6.88785 5.37792H6.85564V4.3295H4.57058ZM0.691427 4.3295H3.07564V11.9962H0.691427V4.3295Z" fill="#5E5873"/>
</svg>
