<svg width="112" height="25" viewBox="0 0 112 25" fill="none" xmlns="http://www.w3.org/2000/svg">
<path d="M21.1718 10.4573C21.163 8.39843 20.6461 6.72939 19.621 5.45023C18.447 3.96957 16.8568 3.43951 14.8505 3.86005C14.1496 4.00899 13.1201 4.74495 11.7621 6.06791H11.6701C10.4961 4.12289 8.76572 3.38694 6.47901 3.86005C5.97086 3.96519 5.49774 4.2105 5.05968 4.596C4.9633 4.67485 4.79684 4.83256 4.56028 5.06912C4.38505 5.24434 4.24487 5.367 4.13973 5.43709V5.42395C4.13973 5.06473 4.0127 4.75809 3.75862 4.50401C3.50454 4.24117 3.19789 4.10975 2.83868 4.10975H1.3142C0.946225 4.10975 0.635197 4.24117 0.381118 4.50401C0.127039 4.75809 0 5.06473 0 5.42395V15.2542C0 15.7711 0.183988 16.2179 0.551965 16.5947C0.928702 16.9626 1.37553 17.1466 1.89245 17.1466H2.18157C2.70726 17.1466 3.15408 16.9626 3.52206 16.5947C3.8988 16.2179 4.08717 15.7711 4.08717 15.2542V9.48483C4.08717 8.86278 4.29744 8.31957 4.71798 7.85522C5.14729 7.38211 5.66859 7.13679 6.28188 7.11927C6.92146 7.10175 7.47343 7.3164 7.93778 7.76323C8.39337 8.21006 8.62116 8.75326 8.62116 9.39284V15.2542C8.62116 15.7711 8.80953 16.2179 9.18627 16.5947C9.55424 16.9626 10.0011 17.1466 10.5268 17.1466H10.9079C11.4248 17.1466 11.8716 16.9626 12.2484 16.5947C12.6163 16.2179 12.8003 15.7711 12.8003 15.2542V9.48483C12.8003 8.86278 13.0106 8.31957 13.4311 7.85522C13.8604 7.38211 14.3817 7.13679 14.995 7.11927C15.6434 7.10175 16.1953 7.3164 16.6509 7.76323C17.1153 8.21006 17.3475 8.75326 17.3475 9.39284V15.2542C17.3475 15.7711 17.5314 16.2179 17.8994 16.5947C18.2674 16.9626 18.7142 17.1466 19.2399 17.1466H19.2793C19.805 17.1466 20.2518 16.9626 20.6198 16.5947C20.9878 16.2179 21.1718 15.7711 21.1718 15.2542V10.4573Z" fill="url(#paint0_linear_1_13597)"/>
<path d="M32.3819 10.707C32.3819 11.3554 32.2636 11.9424 32.0271 12.4681C31.773 13.02 31.4357 13.3968 31.0152 13.5983C30.139 14.0276 29.2629 14.0714 28.3868 13.7297C27.6245 13.4318 27.1426 13.0113 26.9411 12.4681V9.18257C26.9674 8.0874 27.4274 7.39087 28.321 7.09299C28.7679 6.94404 29.2147 6.90462 29.6615 6.97471C30.415 6.97471 31.059 7.32078 31.5934 8.01293C32.1191 8.71383 32.3819 9.5593 32.3819 10.5493V10.707ZM30.0032 17.0941C31.7467 17.0941 33.2362 16.4457 34.4715 15.149C35.7069 13.8524 36.3245 12.2841 36.3245 10.4442C36.3245 8.61308 35.7069 7.04918 34.4715 5.7525C33.2362 4.45582 31.7467 3.80748 30.0032 3.80748C28.9168 3.80748 27.8961 4.08784 26.9411 4.64857V4.63543C26.9411 4.40763 26.8579 4.2105 26.6914 4.04404C26.5337 3.88633 26.3366 3.80748 26.1 3.80748H23.6293C23.4015 3.80748 23.2044 3.88633 23.038 4.04404C22.8715 4.2105 22.7883 4.41201 22.7883 4.64857V20.5898C22.7883 21.1506 22.9898 21.6324 23.3928 22.0355C23.7958 22.4385 24.2777 22.64 24.8384 22.64H24.891C25.4517 22.64 25.9336 22.4385 26.3366 22.0355C26.7396 21.6324 26.9411 21.1506 26.9411 20.5898V16.253C27.8961 16.8137 28.9168 17.0941 30.0032 17.0941Z" fill="url(#paint1_linear_1_13597)"/>
<path d="M41.4762 10.2471C41.4762 9.59873 41.5945 9.01172 41.831 8.48604C42.0851 7.93407 42.4224 7.55734 42.843 7.35583C43.7191 6.92652 44.5952 6.88271 45.4714 7.22441C46.2336 7.52229 46.7155 7.94284 46.917 8.48604V11.7715C46.8907 12.8579 46.4307 13.5545 45.5371 13.8611C45.0903 14.0101 44.6434 14.0495 44.1966 13.9794C43.4431 13.9794 42.7992 13.6333 42.2647 12.9412C41.739 12.2403 41.4762 11.3948 41.4762 10.4048V10.2471ZM37.5336 10.5099C37.5336 12.341 38.1513 13.9049 39.3866 15.2016C40.622 16.4983 42.1114 17.1466 43.8549 17.1466C44.3543 17.1466 45.0684 16.8444 45.9971 16.2398C46.2248 16.0909 46.4745 16.0339 46.7461 16.069C47.009 16.104 47.2368 16.2223 47.4295 16.4238C47.8764 16.9057 48.2312 17.1466 48.494 17.1466H50.2288C50.4566 17.1466 50.6537 17.0634 50.8202 16.8969C50.9866 16.7392 51.0699 16.5421 51.0699 16.3055V5.80507C51.0699 5.38452 50.9165 5.02093 50.6099 4.71428C50.312 4.4164 49.9484 4.26745 49.5191 4.26745H48.4415C48.0209 4.26745 47.6617 4.4164 47.3638 4.71428C47.0659 5.01217 46.917 5.37138 46.917 5.79193V5.80507C46.3475 4.50839 45.3268 3.86005 43.8549 3.86005C42.1114 3.86005 40.622 4.50839 39.3866 5.80507C38.1513 7.10175 37.5336 8.67003 37.5336 10.5099Z" fill="url(#paint2_linear_1_13597)"/>
<path d="M62.5429 4.21488C62.1398 4.21488 61.7719 4.33754 61.4389 4.58286C61.1147 4.81942 60.8913 5.13483 60.7687 5.52909C59.5596 9.49797 58.8237 12.0738 58.5608 13.2566L55.9981 5.48966C55.8755 5.10416 55.6521 4.79751 55.3279 4.56972C55.0037 4.33316 54.6401 4.21488 54.2371 4.21488H53.9085C53.2339 4.21488 52.7126 4.49525 52.3446 5.05597C51.9767 5.62546 51.9329 6.21685 52.2132 6.83015C54.2984 11.4737 55.4987 14.6015 55.8141 16.2135V16.2793C55.8141 17.7599 55.398 18.7018 54.5656 19.1048C54.224 19.2713 53.8647 19.3589 53.488 19.3676C53.0675 19.3676 52.7082 19.521 52.4104 19.8276C52.1125 20.1255 51.9635 20.4891 51.9635 20.9184V20.9447C51.9635 21.6281 52.2746 22.1055 52.8966 22.3771C53.1595 22.491 53.3829 22.5655 53.5669 22.6006C55.1614 22.9247 56.5895 22.6531 57.8512 21.7858C59.0076 20.9885 59.8093 19.8626 60.2561 18.4083C60.3262 18.1892 61.6886 14.2817 64.3433 6.68558C64.5536 6.08105 64.4747 5.51594 64.1068 4.99026C63.7388 4.47334 63.2306 4.21488 62.5823 4.21488H62.5429Z" fill="url(#paint3_linear_1_13597)"/>
<path d="M65.4998 15.0176C65.6049 14.6146 65.8371 14.3123 66.1963 14.1108C66.5555 13.9093 66.9323 13.8699 67.3265 13.9925C68.0888 14.2291 68.7765 14.3474 69.3898 14.3474C70.5376 14.3474 71.1114 13.9925 71.1114 13.2829C71.1114 12.9412 70.98 12.6652 70.7172 12.4549C70.4631 12.2534 69.9637 12.0256 69.219 11.7715C66.7132 10.9392 65.4779 9.63816 65.5129 7.86836C65.5129 6.63302 65.9904 5.6167 66.9454 4.81942C67.9267 4.01337 69.2058 3.61035 70.7829 3.61035C71.5802 3.61035 72.3512 3.70673 73.0959 3.89948C73.4726 3.99585 73.7617 4.20612 73.9633 4.53029C74.1648 4.86322 74.2173 5.21806 74.121 5.5948L74.1078 5.62108C74.0202 5.99782 73.8056 6.28694 73.4639 6.48845C73.1222 6.68996 72.763 6.73815 72.3862 6.63302C71.8605 6.48407 71.3743 6.4096 70.9275 6.4096C69.9024 6.4096 69.3898 6.75567 69.3898 7.44782C69.3898 7.76323 69.5388 8.02607 69.8367 8.23634C70.117 8.43785 70.6646 8.67879 71.4794 8.95915C73.7837 9.75643 74.9489 11.0925 74.9752 12.9675C74.9752 14.2291 74.5065 15.2367 73.569 15.9901C72.579 16.7874 71.1859 17.1861 69.3898 17.1861C68.3648 17.1861 67.3966 17.0503 66.4855 16.7787C66.1175 16.6648 65.8371 16.4413 65.6444 16.1084C65.4516 15.7755 65.4034 15.4206 65.4998 15.0439V15.0176Z" fill="url(#paint4_linear_1_13597)"/>
<path d="M78.9873 17.8154C78.9876 18.7438 79.2705 19.6502 79.7983 20.414C80.3261 21.1779 81.0738 21.763 81.9421 22.0918C82.8104 22.4205 83.7582 22.4772 84.6595 22.2544C85.5608 22.0316 86.373 21.5398 86.9881 20.8444L91.7834 15.4133C92.2134 14.9279 92.7416 14.5392 93.333 14.273C93.9244 14.0068 94.5656 13.8691 95.2142 13.8691C95.8628 13.8691 96.5039 14.0068 97.0954 14.273C97.6868 14.5392 98.215 14.9279 98.645 15.4133L103.449 20.8444C104.064 21.5398 104.876 22.0316 105.778 22.2544C106.679 22.4772 107.627 22.4205 108.495 22.0918C109.363 21.763 110.111 21.1779 110.639 20.414C111.167 19.6502 111.45 18.7438 111.45 17.8154C111.451 16.7035 111.046 15.6296 110.311 14.7952L98.6627 1.54873C98.2334 1.06198 97.7055 0.672162 97.1139 0.405138C96.5224 0.138115 95.8809 -2.83687e-08 95.2319 0C94.5829 2.83687e-08 93.9413 0.138115 93.3497 0.405138C92.7582 0.672162 92.2303 1.06198 91.801 1.54873L80.1442 14.7952C79.4029 15.627 78.9915 16.7012 78.9873 17.8154Z" fill="url(#paint5_linear_1_13597)"/>
<path d="M98.1414 21.7805C98.1414 20.1222 96.7971 18.7779 95.1389 18.7779C93.4806 18.7779 92.1364 20.1222 92.1364 21.7805C92.1364 23.4387 93.4806 24.783 95.1389 24.783C96.7971 24.783 98.1414 23.4387 98.1414 21.7805Z" fill="url(#paint6_linear_1_13597)"/>
<defs>
<linearGradient id="paint0_linear_1_13597" x1="0" y1="3.61035" x2="13.7225" y2="50.9615" gradientUnits="userSpaceOnUse">
<stop stop-color="#43CBFF"/>
<stop offset="1" stop-color="#9708CC"/>
</linearGradient>
<linearGradient id="paint1_linear_1_13597" x1="0" y1="3.61035" x2="13.7225" y2="50.9615" gradientUnits="userSpaceOnUse">
<stop stop-color="#43CBFF"/>
<stop offset="1" stop-color="#9708CC"/>
</linearGradient>
<linearGradient id="paint2_linear_1_13597" x1="0" y1="3.61035" x2="13.7225" y2="50.9615" gradientUnits="userSpaceOnUse">
<stop stop-color="#43CBFF"/>
<stop offset="1" stop-color="#9708CC"/>
</linearGradient>
<linearGradient id="paint3_linear_1_13597" x1="0" y1="3.61035" x2="13.7225" y2="50.9615" gradientUnits="userSpaceOnUse">
<stop stop-color="#43CBFF"/>
<stop offset="1" stop-color="#9708CC"/>
</linearGradient>
<linearGradient id="paint4_linear_1_13597" x1="0" y1="3.61035" x2="13.7225" y2="50.9615" gradientUnits="userSpaceOnUse">
<stop stop-color="#43CBFF"/>
<stop offset="1" stop-color="#9708CC"/>
</linearGradient>
<linearGradient id="paint5_linear_1_13597" x1="133.574" y1="7.81542" x2="82.7791" y2="-6.06279" gradientUnits="userSpaceOnUse">
<stop stop-color="#43CBFF"/>
<stop offset="1" stop-color="#9708CC"/>
</linearGradient>
<linearGradient id="paint6_linear_1_13597" x1="133.574" y1="7.81542" x2="82.7791" y2="-6.06279" gradientUnits="userSpaceOnUse">
<stop stop-color="#43CBFF"/>
<stop offset="1" stop-color="#9708CC"/>
</linearGradient>
</defs>
</svg>
