<svg width="98" height="9" viewBox="0 0 98 9" fill="none" xmlns="http://www.w3.org/2000/svg">
<path d="M4.776 8.928C2.484 8.928 0.612 7.08 0.612 4.764C0.612 2.472 2.46 0.599999 4.776 0.599999C7.08 0.599999 8.94 2.448 8.94 4.764C8.94 7.068 7.104 8.928 4.776 8.928ZM3.216 5.688C3.732 5.688 4.14 5.268 4.14 4.764C4.14 4.248 3.732 3.84 3.216 3.84C2.712 3.84 2.292 4.248 2.292 4.764C2.292 5.268 2.712 5.688 3.216 5.688ZM6.336 5.688C6.84 5.688 7.26 5.268 7.26 4.764C7.26 4.248 6.84 3.84 6.336 3.84C5.832 3.84 5.412 4.248 5.412 4.764C5.412 5.268 5.832 5.688 6.336 5.688ZM17.4674 8.928C15.1754 8.928 13.3034 7.08 13.3034 4.764C13.3034 2.472 15.1514 0.599999 17.4674 0.599999C19.7714 0.599999 21.6314 2.448 21.6314 4.764C21.6314 7.068 19.7954 8.928 17.4674 8.928ZM15.9074 5.688C16.4234 5.688 16.8314 5.268 16.8314 4.764C16.8314 4.248 16.4234 3.84 15.9074 3.84C15.4034 3.84 14.9834 4.248 14.9834 4.764C14.9834 5.268 15.4034 5.688 15.9074 5.688ZM19.0274 5.688C19.5314 5.688 19.9514 5.268 19.9514 4.764C19.9514 4.248 19.5314 3.84 19.0274 3.84C18.5234 3.84 18.1034 4.248 18.1034 4.764C18.1034 5.268 18.5234 5.688 19.0274 5.688ZM30.1588 8.928C27.8668 8.928 25.9948 7.08 25.9948 4.764C25.9948 2.472 27.8428 0.599999 30.1588 0.599999C32.4628 0.599999 34.3228 2.448 34.3228 4.764C34.3228 7.068 32.4868 8.928 30.1588 8.928ZM28.5988 5.688C29.1148 5.688 29.5228 5.268 29.5228 4.764C29.5228 4.248 29.1148 3.84 28.5988 3.84C28.0948 3.84 27.6748 4.248 27.6748 4.764C27.6748 5.268 28.0948 5.688 28.5988 5.688ZM31.7188 5.688C32.2228 5.688 32.6428 5.268 32.6428 4.764C32.6428 4.248 32.2228 3.84 31.7188 3.84C31.2148 3.84 30.7948 4.248 30.7948 4.764C30.7948 5.268 31.2148 5.688 31.7188 5.688ZM42.8502 8.928C40.5582 8.928 38.6862 7.08 38.6862 4.764C38.6862 2.472 40.5342 0.599999 42.8502 0.599999C45.1542 0.599999 47.0142 2.448 47.0142 4.764C47.0142 7.068 45.1782 8.928 42.8502 8.928ZM41.2902 5.688C41.8062 5.688 42.2142 5.268 42.2142 4.764C42.2142 4.248 41.8062 3.84 41.2902 3.84C40.7862 3.84 40.3662 4.248 40.3662 4.764C40.3662 5.268 40.7862 5.688 41.2902 5.688ZM44.4102 5.688C44.9142 5.688 45.3342 5.268 45.3342 4.764C45.3342 4.248 44.9142 3.84 44.4102 3.84C43.9062 3.84 43.4862 4.248 43.4862 4.764C43.4862 5.268 43.9062 5.688 44.4102 5.688ZM55.5416 8.928C53.2496 8.928 51.3776 7.08 51.3776 4.764C51.3776 2.472 53.2256 0.599999 55.5416 0.599999C57.8456 0.599999 59.7056 2.448 59.7056 4.764C59.7056 7.068 57.8696 8.928 55.5416 8.928ZM53.9816 5.688C54.4976 5.688 54.9056 5.268 54.9056 4.764C54.9056 4.248 54.4976 3.84 53.9816 3.84C53.4776 3.84 53.0576 4.248 53.0576 4.764C53.0576 5.268 53.4776 5.688 53.9816 5.688ZM57.1016 5.688C57.6056 5.688 58.0256 5.268 58.0256 4.764C58.0256 4.248 57.6056 3.84 57.1016 3.84C56.5976 3.84 56.1776 4.248 56.1776 4.764C56.1776 5.268 56.5976 5.688 57.1016 5.688ZM68.233 8.928C65.941 8.928 64.069 7.08 64.069 4.764C64.069 2.472 65.917 0.599999 68.233 0.599999C70.537 0.599999 72.397 2.448 72.397 4.764C72.397 7.068 70.561 8.928 68.233 8.928ZM66.673 5.688C67.189 5.688 67.597 5.268 67.597 4.764C67.597 4.248 67.189 3.84 66.673 3.84C66.169 3.84 65.749 4.248 65.749 4.764C65.749 5.268 66.169 5.688 66.673 5.688ZM69.793 5.688C70.297 5.688 70.717 5.268 70.717 4.764C70.717 4.248 70.297 3.84 69.793 3.84C69.289 3.84 68.869 4.248 68.869 4.764C68.869 5.268 69.289 5.688 69.793 5.688ZM80.9244 8.928C78.6324 8.928 76.7604 7.08 76.7604 4.764C76.7604 2.472 78.6084 0.599999 80.9244 0.599999C83.2284 0.599999 85.0884 2.448 85.0884 4.764C85.0884 7.068 83.2524 8.928 80.9244 8.928ZM79.3644 5.688C79.8804 5.688 80.2884 5.268 80.2884 4.764C80.2884 4.248 79.8804 3.84 79.3644 3.84C78.8604 3.84 78.4404 4.248 78.4404 4.764C78.4404 5.268 78.8604 5.688 79.3644 5.688ZM82.4844 5.688C82.9884 5.688 83.4084 5.268 83.4084 4.764C83.4084 4.248 82.9884 3.84 82.4844 3.84C81.9804 3.84 81.5604 4.248 81.5604 4.764C81.5604 5.268 81.9804 5.688 82.4844 5.688ZM93.6158 8.928C91.3238 8.928 89.4518 7.08 89.4518 4.764C89.4518 2.472 91.2998 0.599999 93.6158 0.599999C95.9198 0.599999 97.7798 2.448 97.7798 4.764C97.7798 7.068 95.9438 8.928 93.6158 8.928ZM92.0558 5.688C92.5718 5.688 92.9798 5.268 92.9798 4.764C92.9798 4.248 92.5718 3.84 92.0558 3.84C91.5518 3.84 91.1318 4.248 91.1318 4.764C91.1318 5.268 91.5518 5.688 92.0558 5.688ZM95.1758 5.688C95.6798 5.688 96.0998 5.268 96.0998 4.764C96.0998 4.248 95.6798 3.84 95.1758 3.84C94.6718 3.84 94.2518 4.248 94.2518 4.764C94.2518 5.268 94.6718 5.688 95.1758 5.688Z" fill="#B9B9C3"/>
</svg>
