<svg width="32" height="32" viewBox="0 0 32 32" fill="none" xmlns="http://www.w3.org/2000/svg">
<path d="M27.0786 23.6108C29.5946 20.8802 29.3412 17.3735 29.3332 17.3335V6.66683C29.3332 6.31321 29.1928 5.97407 28.9427 5.72402C28.6927 5.47397 28.3535 5.3335 27.9999 5.3335H19.9999C18.5292 5.3335 17.3332 6.5295 17.3332 8.00016V17.3335C17.3332 17.6871 17.4737 18.0263 17.7238 18.2763C17.9738 18.5264 18.3129 18.6668 18.6666 18.6668H22.7706C22.7424 19.326 22.5454 19.9669 22.1986 20.5282C21.5212 21.5962 20.2452 22.3255 18.4039 22.6935L17.3332 22.9068V26.6668H18.6666C22.3772 26.6668 25.2079 25.6388 27.0786 23.6108ZM12.4026 23.6108C14.9199 20.8802 14.6652 17.3735 14.6572 17.3335V6.66683C14.6572 6.31321 14.5168 5.97407 14.2667 5.72402C14.0167 5.47397 13.6775 5.3335 13.3239 5.3335H5.32389C3.85323 5.3335 2.65723 6.5295 2.65723 8.00016V17.3335C2.65723 17.6871 2.7977 18.0263 3.04775 18.2763C3.2978 18.5264 3.63694 18.6668 3.99056 18.6668H8.09456C8.06639 19.326 7.86944 19.9669 7.52256 20.5282C6.84523 21.5962 5.56923 22.3255 3.72789 22.6935L2.65723 22.9068V26.6668H3.99056C7.70123 26.6668 10.5319 25.6388 12.4026 23.6108Z" fill="url(#paint0_linear_16_504)"/>
<defs>
<linearGradient id="paint0_linear_16_504" x1="2.65723" y1="5.3335" x2="31.1565" y2="36.7091" gradientUnits="userSpaceOnUse">
<stop stop-color="#43CBFF"/>
<stop offset="1" stop-color="#9708CC"/>
</linearGradient>
</defs>
</svg>
