<svg width="25" height="26" viewBox="0 0 25 26" fill="none" xmlns="http://www.w3.org/2000/svg">
<mask id="mask0_1_13424" style="mask-type:luminance" maskUnits="userSpaceOnUse" x="2" y="5" width="21" height="16">
<path fill-rule="evenodd" clip-rule="evenodd" d="M3.12516 7.73929H21.8752C22.5002 7.73929 22.9168 7.318 22.9168 6.68605C22.9168 6.05411 22.5002 5.63281 21.8752 5.63281H3.12516C2.50016 5.63281 2.0835 6.05411 2.0835 6.68605C2.0835 7.318 2.50016 7.73929 3.12516 7.73929ZM22.9168 13.0055C22.9168 13.6374 22.5002 14.0587 21.8752 14.0587H3.12516C2.50016 14.0587 2.0835 13.6374 2.0835 13.0055C2.0835 12.3736 2.50016 11.9523 3.12516 11.9523H21.8752C22.5002 11.9523 22.9168 12.3736 22.9168 13.0055ZM3.12516 18.2717H21.8752C22.5002 18.2717 22.9168 18.693 22.9168 19.3249C22.9168 19.9569 22.5002 20.3782 21.8752 20.3782H3.12516C2.50016 20.3782 2.0835 19.9569 2.0835 19.3249C2.0835 18.693 2.50016 18.2717 3.12516 18.2717Z" fill="white"/>
</mask>
<g mask="url(#mask0_1_13424)">
<rect y="0.366699" width="25" height="25.2778" fill="white"/>
</g>
</svg>
