<svg width="114" height="25" viewBox="0 0 114 25" fill="none" xmlns="http://www.w3.org/2000/svg">
<path d="M21.7436 10.1612C21.7346 8.00779 21.2037 6.26217 20.1509 4.92431C18.9452 3.3757 17.3121 2.82131 15.2515 3.26116C14.5317 3.41693 13.4744 4.18666 12.0798 5.57033H11.9853C10.7796 3.53606 9.00245 2.76633 6.65399 3.26116C6.13211 3.37112 5.64622 3.62769 5.19632 4.03088C5.09734 4.11335 4.92638 4.27829 4.68344 4.5257C4.50348 4.70897 4.35951 4.83726 4.25153 4.91057V4.89682C4.25153 4.52112 4.12106 4.2004 3.86012 3.93467C3.59918 3.65976 3.28425 3.52231 2.91534 3.52231H1.34969C0.971779 3.52231 0.652352 3.65976 0.391411 3.93467C0.13047 4.2004 0 4.52112 0 4.89682V15.1781C0 15.7188 0.188957 16.1861 0.566871 16.5801C0.953783 16.965 1.41268 17.1574 1.94356 17.1574H2.24049C2.78037 17.1574 3.23926 16.965 3.61718 16.5801C4.00409 16.1861 4.19755 15.7188 4.19755 15.1781V9.14405C4.19755 8.49345 4.4135 7.92532 4.8454 7.43966C5.2863 6.94484 5.82168 6.68826 6.45153 6.66994C7.10839 6.65161 7.67526 6.87611 8.15215 7.34344C8.62004 7.81078 8.85399 8.37891 8.85399 9.04783V15.1781C8.85399 15.7188 9.04744 16.1861 9.43436 16.5801C9.81227 16.965 10.2712 17.1574 10.811 17.1574H11.2025C11.7333 17.1574 12.1922 16.965 12.5791 16.5801C12.9571 16.1861 13.146 15.7188 13.146 15.1781V9.14405C13.146 8.49345 13.362 7.92532 13.7939 7.43966C14.2348 6.94484 14.7701 6.68826 15.4 6.66994C16.0658 6.65161 16.6327 6.87611 17.1006 7.34344C17.5775 7.81078 17.816 8.37891 17.816 9.04783V15.1781C17.816 15.7188 18.0049 16.1861 18.3828 16.5801C18.7607 16.965 19.2196 17.1574 19.7595 17.1574H19.8C20.3399 17.1574 20.7988 16.965 21.1767 16.5801C21.5546 16.1861 21.7436 15.7188 21.7436 15.1781V10.1612Z" fill="white"/>
<path d="M33.2564 10.4223C33.2564 11.1004 33.135 11.7144 32.892 12.2642C32.6311 12.8415 32.2847 13.2355 31.8528 13.4463C30.953 13.8953 30.0532 13.9411 29.1534 13.5837C28.3706 13.2722 27.8757 12.8323 27.6687 12.2642V8.82791C27.6957 7.68249 28.1681 6.954 29.0859 6.64245C29.5448 6.48667 30.0037 6.44543 30.4626 6.51874C31.2364 6.51874 31.8978 6.88069 32.4466 7.6046C32.9865 8.33767 33.2564 9.22194 33.2564 10.2574V10.4223ZM30.8135 17.1025C32.6041 17.1025 34.1337 16.4244 35.4025 15.0682C36.6712 13.712 37.3055 12.0718 37.3055 10.1474C37.3055 8.23229 36.6712 6.59663 35.4025 5.24045C34.1337 3.88427 32.6041 3.20618 30.8135 3.20618C29.6978 3.20618 28.6495 3.4994 27.6687 4.08586V4.07212C27.6687 3.83387 27.5832 3.62769 27.4123 3.45359C27.2503 3.28865 27.0479 3.20618 26.8049 3.20618H24.2675C24.0335 3.20618 23.8311 3.28865 23.6601 3.45359C23.4892 3.62769 23.4037 3.83845 23.4037 4.08586V20.7586C23.4037 21.3451 23.6106 21.8491 24.0245 22.2706C24.4384 22.6921 24.9333 22.9029 25.5092 22.9029H25.5632C26.1391 22.9029 26.6339 22.6921 27.0479 22.2706C27.4618 21.8491 27.6687 21.3451 27.6687 20.7586V16.2228C28.6495 16.8092 29.6978 17.1025 30.8135 17.1025Z" fill="white"/>
<path d="M42.5963 9.94126C42.5963 9.26317 42.7178 8.64923 42.9607 8.09942C43.2217 7.52213 43.5681 7.12811 44 6.91735C44.8998 6.46834 45.7996 6.42252 46.6994 6.7799C47.4822 7.09145 47.9771 7.53129 48.1841 8.09942V11.5357C48.1571 12.672 47.6847 13.4004 46.7669 13.7212C46.308 13.8769 45.8491 13.9182 45.3902 13.8449C44.6164 13.8449 43.955 13.4829 43.4061 12.759C42.8663 12.0259 42.5963 11.1417 42.5963 10.1062V9.94126ZM38.5472 10.2162C38.5472 12.1313 39.1816 13.767 40.4503 15.1232C41.719 16.4793 43.2487 17.1574 45.0393 17.1574C45.5522 17.1574 46.2855 16.8413 47.2393 16.209C47.4732 16.0532 47.7297 15.9937 48.0086 16.0303C48.2785 16.067 48.5125 16.1907 48.7104 16.4015C49.1693 16.9054 49.5337 17.1574 49.8037 17.1574H51.5853C51.8192 17.1574 52.0217 17.0704 52.1926 16.8963C52.3636 16.7313 52.4491 16.5252 52.4491 16.2777V5.29543C52.4491 4.85559 52.2916 4.47531 51.9767 4.15459C51.6708 3.84303 51.2973 3.68725 50.8564 3.68725H49.7497C49.3178 3.68725 48.9489 3.84303 48.6429 4.15459C48.337 4.46614 48.1841 4.84184 48.1841 5.28168V5.29543C47.5992 3.93925 46.5509 3.26116 45.0393 3.26116C43.2487 3.26116 41.719 3.93925 40.4503 5.29543C39.1816 6.65161 38.5472 8.29186 38.5472 10.2162Z" fill="white"/>
<path d="M64.2319 3.63227C63.818 3.63227 63.4401 3.76056 63.0982 4.01714C62.7652 4.26455 62.5358 4.59443 62.4098 5.00678C61.1681 9.1578 60.4123 11.8518 60.1423 13.0889L57.5104 4.96555C57.3845 4.56236 57.155 4.24164 56.8221 4.00339C56.4892 3.75598 56.1157 3.63227 55.7018 3.63227H55.3644C54.6716 3.63227 54.1362 3.9255 53.7583 4.51196C53.3804 5.10758 53.3354 5.72611 53.6233 6.36754C55.7648 11.2241 56.9976 14.4955 57.3215 16.1815V16.2503C57.3215 17.7989 56.8941 18.7839 56.0393 19.2054C55.6883 19.3796 55.3194 19.4712 54.9325 19.4803C54.5006 19.4803 54.1317 19.6407 53.8258 19.9614C53.5198 20.273 53.3669 20.6533 53.3669 21.1023V21.1298C53.3669 21.8445 53.6863 22.3439 54.3252 22.628C54.5951 22.7471 54.8245 22.825 55.0135 22.8616C56.6511 23.2007 58.1178 22.9166 59.4135 22.0094C60.6012 21.1756 61.4245 19.9981 61.8834 18.477C61.9554 18.2479 63.3546 14.161 66.081 6.21635C66.2969 5.58407 66.216 4.99304 65.838 4.44323C65.4601 3.90259 64.9382 3.63227 64.2724 3.63227H64.2319Z" fill="white"/>
<path d="M67.2687 14.9307C67.3767 14.5092 67.6151 14.1931 67.9841 13.9823C68.353 13.7716 68.7399 13.7303 69.1448 13.8586C69.9276 14.106 70.6339 14.2297 71.2638 14.2297C72.4425 14.2297 73.0319 13.8586 73.0319 13.1164C73.0319 12.759 72.8969 12.4704 72.627 12.2504C72.3661 12.0397 71.8532 11.8014 71.0883 11.5357C68.5149 10.6652 67.2462 9.30441 67.2822 7.45341C67.2822 6.16137 67.7726 5.09842 68.7534 4.26455C69.7611 3.42152 71.0749 3 72.6945 3C73.5133 3 74.3051 3.1008 75.0699 3.30239C75.4569 3.40319 75.7538 3.62311 75.9607 3.96216C76.1677 4.31036 76.2217 4.68148 76.1227 5.07551L76.1092 5.103C76.0192 5.49702 75.7988 5.79941 75.4479 6.01017C75.0969 6.22093 74.728 6.27133 74.3411 6.16137C73.8012 6.00559 73.3018 5.9277 72.8429 5.9277C71.7902 5.9277 71.2638 6.28966 71.2638 7.01356C71.2638 7.34344 71.4168 7.61835 71.7227 7.83827C72.0106 8.04903 72.573 8.30102 73.4098 8.59425C75.7763 9.42812 76.973 10.8255 77 12.7865C77 14.106 76.5186 15.1598 75.5558 15.9479C74.5391 16.7817 73.1084 17.1987 71.2638 17.1987C70.211 17.1987 69.2168 17.0566 68.281 16.7726C67.9031 16.6534 67.6151 16.4198 67.4172 16.0716C67.2192 15.7234 67.1697 15.3522 67.2687 14.9582V14.9307Z" fill="white"/>
<path d="M81 17.9714C81.0003 18.908 81.2879 19.8223 81.8244 20.5928C82.3609 21.3633 83.121 21.9536 84.0037 22.2852C84.8864 22.6168 85.8499 22.6741 86.7661 22.4493C87.6824 22.2245 88.508 21.7284 89.1333 21.0269L94.0079 15.5483C94.445 15.0586 94.982 14.6665 95.5832 14.3979C96.1844 14.1294 96.8362 13.9906 97.4955 13.9906C98.1548 13.9906 98.8066 14.1294 99.4078 14.3979C100.009 14.6665 100.546 15.0586 100.983 15.5483L105.867 21.0269C106.492 21.7284 107.318 22.2245 108.234 22.4493C109.15 22.6741 110.114 22.6168 110.996 22.2852C111.879 21.9536 112.639 21.3633 113.176 20.5928C113.712 19.8223 114 18.908 114 17.9714C114.001 16.8498 113.589 15.7665 112.842 14.9247L101.001 1.56229C100.565 1.07128 100.028 0.678048 99.4267 0.408686C98.8254 0.139325 98.1732 -2.86171e-08 97.5135 0C96.8537 2.86171e-08 96.2015 0.139325 95.6002 0.408686C94.9989 0.678048 94.4622 1.07128 94.0258 1.56229L82.176 14.9247C81.4225 15.7639 81.0043 16.8475 81 17.9714Z" fill="white"/>
<path d="M100.471 21.9712C100.471 20.2984 99.1047 18.9424 97.419 18.9424C95.7333 18.9424 94.3667 20.2984 94.3667 21.9712C94.3667 23.644 95.7333 25 97.419 25C99.1047 25 100.471 23.644 100.471 21.9712Z" fill="white"/>
</svg>
